<svg width="33" height="33" viewBox="0 0 33 33" fill="none" xmlns="http://www.w3.org/2000/svg">
<g clip-path="url(#clip0)">
<path d="M30.5208 17.2441C30.1566 17.2441 29.8203 17.3329 29.522 17.4668C29.0685 16.8868 28.3646 16.5114 27.5711 16.5107C27.1611 16.5107 26.7839 16.6195 26.4598 16.7825L26.4259 16.8013L25.4127 17.4022C24.9585 16.8591 24.2782 16.511 23.5149 16.5107C23.1049 16.5107 22.7277 16.6195 22.4036 16.7825L22.3631 16.8053L18.4838 19.1813C17.6078 18.9224 16.6351 18.6385 15.6953 18.3719C14.7038 18.0906 13.7503 17.8292 12.986 17.6363C12.6033 17.5397 12.2685 17.4604 11.9949 17.404C11.8577 17.3756 11.736 17.3532 11.628 17.3366C11.5185 17.3204 11.427 17.309 11.3239 17.3086C11.2442 17.309 11.1752 17.3159 11.0967 17.3255C10.811 17.3632 10.4046 17.4502 9.92529 17.5626C8.94598 17.7927 7.69611 18.1275 7.00549 18.3155V17.1466C7.00549 16.3355 6.34181 15.6717 5.53061 15.6717H1.47488C0.663675 15.6719 0 16.3355 0 17.1467V28.5768C0 29.388 0.663675 30.0517 1.47488 30.0517H5.53067C6.34181 30.0517 7.00555 29.388 7.00555 28.5768V27.6894C7.88089 27.88 9.82364 28.2995 11.8718 28.7202C13.2571 29.0045 14.6888 29.2892 15.8712 29.5037C16.4627 29.611 16.9917 29.7006 17.425 29.7641C17.8619 29.8272 18.1875 29.8662 18.4356 29.8677C18.6288 29.867 18.8117 29.8304 19.0093 29.7759C19.377 29.6722 19.7954 29.4964 20.2744 29.2637C21.9412 28.4511 24.3353 26.9286 26.5937 25.4221C28.848 23.9174 30.9566 22.4315 31.9898 21.7199C32.6365 21.2741 33.0001 20.5209 33.0001 19.7237C32.999 18.3546 31.8902 17.2448 30.5208 17.2441ZM5.89934 28.5767C5.89934 28.7765 5.73047 28.9454 5.53067 28.9454H1.47488C1.27508 28.9454 1.10621 28.7765 1.10621 28.5767V17.1467C1.10621 16.9469 1.27508 16.7781 1.47488 16.7781H5.53067C5.73047 16.7781 5.89934 16.9469 5.89934 17.1467V28.5767ZM31.3626 20.8087C30.092 21.6841 27.2488 23.6917 24.4968 25.4792C23.1219 26.3722 21.7699 27.2096 20.6611 27.8165C20.1074 28.1199 19.6133 28.3651 19.2183 28.5292C19.0211 28.611 18.8485 28.6726 18.7117 28.7106C18.5756 28.7492 18.4731 28.7622 18.4359 28.7614C18.3153 28.7625 17.9961 28.7308 17.5857 28.6696C16.133 28.4568 13.4138 27.9137 11.0724 27.4252C9.9006 27.1807 8.82133 26.9499 8.03494 26.7803C7.57809 26.6818 7.2256 26.6047 7.00581 26.5572V19.4626C7.1139 19.4326 7.25544 19.394 7.4254 19.3479C8.00838 19.1897 8.89803 18.9526 9.69596 18.7561C10.0945 18.6577 10.471 18.57 10.77 18.5076C10.919 18.4767 11.0492 18.452 11.1491 18.4361C11.2471 18.4198 11.3234 18.414 11.3242 18.4151C11.326 18.4147 11.3839 18.4183 11.4628 18.4306C11.7681 18.4763 12.3938 18.6227 13.1559 18.8221C15.4526 19.4221 19.074 20.5064 20.5371 20.9507C21.0433 21.1033 21.5017 21.3334 21.8025 21.6126C21.9537 21.752 22.0673 21.901 22.1436 22.062C22.2199 22.2239 22.2631 22.399 22.2638 22.6132C22.2634 23.0472 22.0894 23.4351 21.8052 23.7201C21.5227 24.0015 21.1393 24.1736 20.7112 24.1777L19.2839 24.038L14.4128 23.4126C14.1097 23.3739 13.8324 23.5877 13.7934 23.8908C13.7543 24.1939 13.9689 24.4707 14.2716 24.5098L19.1584 25.137L20.6709 25.2851H20.6981C22.1733 25.2847 23.3691 24.089 23.3699 22.6134C23.3706 22.2422 23.2884 21.893 23.1427 21.5873C22.9234 21.1268 22.5705 20.7702 22.1715 20.4988C21.7711 20.2267 21.3191 20.0328 20.8589 19.8927C20.6024 19.8149 20.279 19.7168 19.9095 19.6058L22.9112 17.767C23.1058 17.6712 23.305 17.617 23.5159 17.6166C23.8736 17.6162 24.1965 17.7549 24.4407 17.9791L22.9577 18.8585C22.6952 19.0142 22.6086 19.3537 22.7646 19.6162C22.9205 19.8787 23.2598 19.9657 23.5226 19.8098L26.9649 17.7683C27.1607 17.6713 27.3609 17.6167 27.5726 17.6167C27.9542 17.6164 28.2975 17.7753 28.5463 18.0275L24.5381 20.4046C24.2752 20.5603 24.189 20.8998 24.345 21.1626C24.5009 21.4252 24.8402 21.5118 25.103 21.3558L29.4372 18.7852C29.4792 18.7781 29.5217 18.7678 29.563 18.7501C29.6518 18.7124 29.7241 18.6528 29.7797 18.5819L29.915 18.5016C30.1108 18.4046 30.311 18.35 30.5226 18.35C30.9028 18.3504 31.2427 18.5031 31.4931 18.7523C31.7423 19.0027 31.895 19.343 31.8954 19.7235C31.8935 20.1871 31.6812 20.5919 31.3626 20.8087Z" fill="black"/>
<path d="M19.9856 9.24519C19.5 8.88902 18.9374 8.69321 18.3788 8.53504C18.3029 8.51364 18.2284 8.49637 18.1525 8.47639V5.1002C18.6919 5.18096 19.0908 5.34912 19.3563 5.55666C19.5443 5.70271 19.6737 5.86642 19.7626 6.05037C19.85 6.23438 19.8968 6.44192 19.8971 6.68008C19.8971 6.98539 20.1449 7.23315 20.4502 7.23315C20.7555 7.23315 21.0033 6.98539 21.0033 6.68008C21.0037 6.294 20.9244 5.91611 20.7607 5.57361C20.5159 5.05779 20.0801 4.6353 19.5133 4.36021C19.1214 4.16917 18.6642 4.04787 18.1528 3.9878V3.50144C18.1528 3.19574 17.905 2.94836 17.5997 2.94836C17.294 2.94836 17.0466 3.19574 17.0466 3.50144V3.95719C16.6459 3.98812 16.286 4.06669 15.9674 4.18799C15.3413 4.42473 14.8831 4.82879 14.5995 5.28267C14.3148 5.73687 14.1961 6.23058 14.1957 6.68008C14.1943 7.1531 14.3081 7.57901 14.5224 7.92596C14.7086 8.22979 14.9616 8.46576 15.2374 8.64681C15.7222 8.96353 16.276 9.13388 16.8279 9.28135C16.9006 9.30017 16.9735 9.3186 17.0462 9.33665V12.9685C16.5082 12.9091 16.0956 12.7365 15.8188 12.5012C15.4792 12.2092 15.3052 11.8372 15.3015 11.3623C15.3015 11.0566 15.0537 10.8092 14.7484 10.8092C14.4431 10.8092 14.1953 11.0566 14.1953 11.3623C14.1913 12.1355 14.5209 12.8567 15.1042 13.3456C15.6046 13.7688 16.2719 14.0225 17.0462 14.0852V14.5656C17.0462 14.8709 17.2936 15.1187 17.5993 15.1187C17.9046 15.1187 18.1523 14.8709 18.1523 14.5656V14.0653C18.7784 14.0022 19.3631 13.8477 19.8632 13.538C20.2046 13.3249 20.5007 13.0299 20.7006 12.6572C20.9019 12.2855 21.0037 11.8461 21.0028 11.3623C21.0035 10.8575 20.8952 10.4099 20.6895 10.0367C20.5104 9.71015 20.2618 9.44867 19.9856 9.24519ZM17.0459 8.19325C16.5075 8.04907 16.0434 7.88026 15.7598 7.66267C15.6072 7.54723 15.5017 7.42593 15.4261 7.27808C15.3512 7.12912 15.3022 6.94434 15.3014 6.68001C15.301 6.34009 15.4261 5.933 15.7313 5.62298C15.8851 5.46629 16.0856 5.32656 16.3603 5.22182C16.5495 5.14996 16.7781 5.09678 17.0458 5.0692V8.19325H17.0459ZM19.7271 12.1315C19.6489 12.2753 19.5483 12.3937 19.417 12.4999C19.2208 12.6577 18.9488 12.7849 18.6096 12.8693C18.468 12.9047 18.3135 12.9309 18.1523 12.9512V9.62211C18.4904 9.71976 18.8002 9.82752 19.0509 9.96236C19.3308 10.1105 19.5325 10.2787 19.6696 10.486C19.8053 10.6943 19.8949 10.9557 19.8968 11.362C19.896 11.6965 19.8296 11.9401 19.7271 12.1315Z" fill="black"/>
</g>
<defs>
<clipPath id="clip0">
<rect width="33" height="33" fill="white"/>
</clipPath>
</defs>
</svg>
