<svg width="33" height="33" viewBox="0 0 33 33" fill="none" xmlns="http://www.w3.org/2000/svg">
<path d="M29.42 9.22899C29.4199 9.22885 29.4198 9.2287 29.4196 9.22856L20.8852 0.73453C20.663 0.512421 20.3029 0.512421 20.0807 0.73453L18.2065 2.61722V0.568962C18.2065 0.254753 17.9518 0 17.6376 0H3.98247C3.66827 0 3.41351 0.254753 3.41351 0.568962V24.4654C3.41351 24.7796 3.66827 25.0343 3.98247 25.0343H4.55144V25.8724C4.54681 28.3822 5.393 30.8195 6.95189 32.7864C7.14825 33.0319 7.50641 33.0715 7.75185 32.8752C7.99728 32.6788 8.03697 32.3207 7.84061 32.0752C6.4426 30.3104 5.68424 28.1238 5.68936 25.8724V25.0343H7.96521V28.9266C7.96521 29.2408 8.21996 29.4956 8.53417 29.4956C8.84838 29.4956 9.10313 29.2408 9.10313 28.9266V22.1992C9.10313 21.5707 9.61257 21.0613 10.2411 21.0613C10.8695 21.0613 11.379 21.5707 11.379 22.1992V27.21C11.379 27.3604 11.4385 27.5045 11.5445 27.6111L11.8085 27.8769C12.9971 29.0941 13.6602 30.7295 13.6548 32.4308C13.6548 32.745 13.9096 32.9998 14.2238 32.9998C14.538 32.9998 14.7927 32.745 14.7927 32.4308C14.7923 31.1841 14.4905 29.9559 13.9131 28.8509C14.7236 27.7309 15.2143 26.4117 15.3327 25.0343H17.6376C17.9518 25.0343 18.2065 24.7796 18.2065 24.4654V21.2871L29.4196 10.0336C29.6419 9.81161 29.6422 9.45131 29.42 9.22899ZM13.2446 27.8109C13.0517 27.5516 12.8414 27.3056 12.6153 27.0746L12.5169 26.975V25.0343H14.1874C14.089 26.0196 13.7666 26.9694 13.2446 27.8109ZM17.0686 23.8964H12.5169V22.1992C12.5304 20.9461 11.5256 19.9194 10.2725 19.9058C9.22375 19.8945 8.30388 20.6035 8.04771 21.6206H6.82728V19.3447C6.82728 19.0305 6.57253 18.7757 6.25832 18.7757C5.94411 18.7757 5.68936 19.0305 5.68936 19.3447V22.1895C5.68936 22.5037 5.94411 22.7585 6.25832 22.7585H7.96521V23.8964H4.55144V1.13792H17.0686V23.8964ZM18.2065 19.6741V17.8734L26.0053 10.0746C26.2274 9.85243 26.2274 9.49227 26.0053 9.27009L24.8674 8.13217C24.6413 7.91383 24.2812 7.92009 24.0628 8.14611C23.8499 8.36658 23.8499 8.71614 24.0628 8.93668L24.7985 9.67235L18.2065 16.2643V7.63205L20.4824 5.35621L21.218 6.09187C21.4441 6.31021 21.8042 6.30396 22.0225 6.07794C22.2356 5.85746 22.2356 5.50784 22.0225 5.28736L20.8846 4.14944C20.6624 3.92733 20.3023 3.92733 20.0801 4.14944L18.2065 6.02303V4.22796L20.4824 1.94244L28.2117 9.63366L18.2065 19.6741Z" fill="black"/>
<path d="M10.81 6.82755C7.98199 6.82755 5.68936 9.12011 5.68936 11.9482C5.69249 14.775 7.98327 17.0657 10.81 17.0689C13.6381 17.0689 15.9307 14.7762 15.9307 11.9482C15.9307 9.12011 13.6381 6.82755 10.81 6.82755ZM10.81 7.96547C11.6428 7.96568 12.4543 8.22847 13.1291 8.7165C12.1883 9.03398 11.4326 9.74568 11.0592 10.6658C10.4891 9.52251 9.22205 8.90497 7.97033 9.16029C8.71752 8.39603 9.74122 7.96526 10.81 7.96547ZM6.82729 11.9482C6.82729 11.0055 7.59147 10.2413 8.53417 10.2413C9.47687 10.2413 10.2411 11.0055 10.2411 11.9482C10.2411 12.8909 9.47687 13.6551 8.53417 13.6551C7.59147 13.6551 6.82729 12.8909 6.82729 11.9482ZM10.81 15.9309C9.74122 15.9312 8.71745 15.5004 7.97033 14.7361C9.22205 14.9914 10.4891 14.3739 11.0592 13.2307C11.4326 14.1507 12.1883 14.8624 13.1291 15.1799C12.4543 15.6679 11.6428 15.9307 10.81 15.9309ZM14.0838 14.2104C12.8345 14.1418 11.8773 13.0733 11.946 11.8239C12.0093 10.6705 12.9304 9.74938 14.0838 9.68601C14.5458 10.3499 14.7932 11.1394 14.7928 11.9482C14.7932 12.757 14.5458 13.5466 14.0838 14.2104Z" fill="black"/>
<path d="M7.39625 2.27585H6.25832C5.94411 2.27585 5.68936 2.5306 5.68936 2.84481V5.68962C5.68936 6.00383 5.94411 6.25858 6.25832 6.25858C6.57253 6.25858 6.82729 6.00383 6.82729 5.68962V3.41377H7.39625C7.71046 3.41377 7.96521 3.15902 7.96521 2.84481C7.96521 2.5306 7.71046 2.27585 7.39625 2.27585Z" fill="black"/>
<path d="M15.3617 18.7757C15.0475 18.7757 14.7928 19.0305 14.7928 19.3447V21.6206H14.2238C13.9096 21.6206 13.6548 21.8753 13.6548 22.1895C13.6548 22.5037 13.9096 22.7585 14.2238 22.7585H15.3617C15.6759 22.7585 15.9307 22.5037 15.9307 22.1895V19.3447C15.9307 19.0305 15.6759 18.7757 15.3617 18.7757Z" fill="black"/>
<path d="M15.3617 2.27585H14.2238C13.9096 2.27585 13.6548 2.5306 13.6548 2.84481C13.6548 3.15902 13.9096 3.41377 14.2238 3.41377H14.7928V5.68962C14.7928 6.00383 15.0475 6.25858 15.3617 6.25858C15.6759 6.25858 15.9307 6.00383 15.9307 5.68962V2.84481C15.9307 2.5306 15.6759 2.27585 15.3617 2.27585Z" fill="black"/>
</svg>
