<svg width="22" height="16" viewBox="0 0 22 16" fill="none" xmlns="http://www.w3.org/2000/svg">
<path fill-rule="evenodd" clip-rule="evenodd" d="M15.6699 9.13C17.0399 10.06 17.9999 11.32 17.9999 13V16H21.9999V13C21.9999 10.82 18.4299 9.53 15.6699 9.13Z" fill="black"/>
<path d="M8 8C10.2091 8 12 6.20914 12 4C12 1.79086 10.2091 0 8 0C5.79086 0 4 1.79086 4 4C4 6.20914 5.79086 8 8 8Z" fill="black"/>
<path fill-rule="evenodd" clip-rule="evenodd" d="M13.9999 8C16.2099 8 17.9999 6.21 17.9999 4C17.9999 1.79 16.2099 0 13.9999 0C13.5299 0 13.0899 0.0999998 12.6699 0.24C13.4999 1.27 13.9999 2.58 13.9999 4C13.9999 5.42 13.4999 6.73 12.6699 7.76C13.0899 7.9 13.5299 8 13.9999 8Z" fill="black"/>
<path fill-rule="evenodd" clip-rule="evenodd" d="M8 9C5.33 9 0 10.34 0 13V16H16V13C16 10.34 10.67 9 8 9Z" fill="black"/>
</svg>
