<svg width="24" height="19" viewBox="0 0 24 19" fill="none" xmlns="http://www.w3.org/2000/svg">
<path d="M17.449 6.98L12.868 0.42C12.6693 0.14 12.3346 0 12 0C11.6653 0 11.3306 0.14 11.1319 0.43L6.55096 6.98H1.54123C0.966004 6.98 0.495361 7.43 0.495361 7.98C0.495361 8.07 0.50582 8.16 0.537196 8.25L3.19371 17.52C3.43426 18.36 4.23958 18.98 5.20179 18.98H18.7981C19.7603 18.98 20.5657 18.36 20.8167 17.52L23.4732 8.25L23.5046 7.98C23.5046 7.43 23.0339 6.98 22.4587 6.98H17.449ZM8.86234 6.98L12 2.58L15.1376 6.98H8.86234ZM12 14.98C10.8495 14.98 9.90821 14.08 9.90821 12.98C9.90821 11.88 10.8495 10.98 12 10.98C13.1504 10.98 14.0917 11.88 14.0917 12.98C14.0917 14.08 13.1504 14.98 12 14.98Z" fill="black"/>
</svg>
