<svg width="18" height="20" viewBox="0 0 18 20" fill="none" xmlns="http://www.w3.org/2000/svg">
<path d="M6.12388 9.08333H4.20645V10.9167H6.12388V9.08333ZM9.95874 9.08333H8.04131V10.9167H9.95874V9.08333ZM13.7936 9.08333H11.8762V10.9167H13.7936V9.08333ZM15.711 2.66667H14.7523V0.833332H12.8349V2.66667H5.16516V0.833332H3.24773V2.66667H2.28901C1.22484 2.66667 0.381169 3.49167 0.381169 4.5L0.371582 17.3333C0.371582 18.3417 1.22484 19.1667 2.28901 19.1667H15.711C16.7656 19.1667 17.6285 18.3417 17.6285 17.3333V4.5C17.6285 3.49167 16.7656 2.66667 15.711 2.66667ZM15.711 17.3333H2.28901V7.25H15.711V17.3333Z" fill="black"/>
</svg>
