<svg width="33" height="33" viewBox="0 0 33 33" fill="none" xmlns="http://www.w3.org/2000/svg">
<path d="M30.4219 16.5C30.4219 16.3632 30.3675 16.2321 30.2709 16.1354C30.1742 16.0387 30.043 15.9844 29.9062 15.9844H21.6562V3.09375C21.6562 2.957 21.6019 2.82585 21.5052 2.72915C21.4085 2.63245 21.2774 2.57812 21.1406 2.57812H7.73438C7.59762 2.57812 7.46647 2.63245 7.36977 2.72915C7.27307 2.82585 7.21875 2.957 7.21875 3.09375V15.9844H3.09375C2.957 15.9844 2.82585 16.0387 2.72915 16.1354C2.63245 16.2321 2.57812 16.3632 2.57812 16.5V29.3906H1.03125V30.4219H31.9688V29.3906H30.4219V16.5ZM21.6562 17.0156H24.75V18.8647L24.5989 18.7136C24.5022 18.6169 24.3711 18.5626 24.2344 18.5626C24.0977 18.5626 23.9665 18.6169 23.8698 18.7136L23.2031 19.3803L22.5364 18.7136C22.4397 18.6169 22.3086 18.5626 22.1719 18.5626C22.0352 18.5626 21.904 18.6169 21.8073 18.7136L21.6562 18.8647V17.0156ZM15.9844 3.60938V5.45841L15.8333 5.30733C15.7366 5.21066 15.6055 5.15636 15.4688 5.15636C15.332 5.15636 15.2009 5.21066 15.1042 5.30733L14.4375 5.97403L13.7708 5.30733C13.6741 5.21066 13.543 5.15636 13.4062 5.15636C13.2695 5.15636 13.1384 5.21066 13.0417 5.30733L12.8906 5.45841V3.60938H15.9844ZM8.25 3.60938H11.8594V6.70312C11.8594 6.80509 11.8896 6.90476 11.9463 6.98953C12.003 7.07431 12.0835 7.14038 12.1777 7.1794C12.2719 7.21841 12.3756 7.22862 12.4756 7.20874C12.5756 7.18885 12.6674 7.13976 12.7395 7.06767L13.4062 6.40097L14.073 7.06767C14.1696 7.16434 14.3008 7.21864 14.4375 7.21864C14.5742 7.21864 14.7054 7.16434 14.802 7.06767L15.4688 6.40097L16.1355 7.06767C16.2076 7.13976 16.2994 7.18885 16.3994 7.20874C16.4994 7.22862 16.6031 7.21841 16.6973 7.1794C16.7915 7.14038 16.872 7.07431 16.9287 6.98953C16.9854 6.90476 17.0156 6.80509 17.0156 6.70312V3.60938H20.625V15.9844H8.25V3.60938ZM8.25 17.0156H11.3438V18.8647L11.1927 18.7136C11.096 18.6169 10.9649 18.5626 10.8281 18.5626C10.6914 18.5626 10.5603 18.6169 10.4636 18.7136L9.79688 19.3803L9.13017 18.7136C9.03348 18.6169 8.90235 18.5626 8.76562 18.5626C8.6289 18.5626 8.49777 18.6169 8.40108 18.7136L8.25 18.8647V17.0156ZM3.60938 17.0156H7.21875V20.1094C7.21877 20.2113 7.24902 20.311 7.30568 20.3958C7.36234 20.4806 7.44286 20.5466 7.53707 20.5856C7.63127 20.6247 7.73493 20.6349 7.83494 20.615C7.93495 20.5951 8.02681 20.546 8.09892 20.4739L8.76562 19.8072L9.43233 20.4739C9.52902 20.5706 9.66015 20.6249 9.79688 20.6249C9.9336 20.6249 10.0647 20.5706 10.1614 20.4739L10.8281 19.8072L11.4948 20.4739C11.5669 20.546 11.6588 20.5951 11.7588 20.615C11.8588 20.6349 11.9625 20.6247 12.0567 20.5856C12.1509 20.5466 12.2314 20.4806 12.2881 20.3958C12.3447 20.311 12.375 20.2113 12.375 20.1094V17.0156H15.9844V29.3906H3.60938V17.0156ZM17.0156 29.3906V17.0156H20.625V20.1094C20.625 20.2113 20.6553 20.311 20.7119 20.3958C20.7686 20.4806 20.8491 20.5466 20.9433 20.5856C21.0375 20.6247 21.1412 20.6349 21.2412 20.615C21.3412 20.5951 21.4331 20.546 21.5052 20.4739L22.1719 19.8072L22.8386 20.4739C22.9353 20.5706 23.0664 20.6249 23.2031 20.6249C23.3398 20.6249 23.471 20.5706 23.5677 20.4739L24.2344 19.8072L24.9011 20.4739C24.9732 20.546 25.0651 20.5951 25.1651 20.615C25.2651 20.6349 25.3687 20.6247 25.4629 20.5856C25.5571 20.5466 25.6377 20.4806 25.6943 20.3958C25.751 20.311 25.7812 20.2113 25.7812 20.1094V17.0156H29.3906V29.3906H17.0156Z" fill="black"/>
<path d="M4.64062 21.1406H7.21875V22.1719H4.64062V21.1406Z" fill="black"/>
<path d="M4.64062 23.2031H8.25V24.2344H4.64062V23.2031Z" fill="black"/>
<path d="M18.0469 21.1406H21.1406V22.1719H18.0469V21.1406Z" fill="black"/>
<path d="M18.0469 23.2031H22.6875V24.2344H18.0469V23.2031Z" fill="black"/>
<path d="M9.28125 7.73438H10.8281V8.76562H9.28125V7.73438Z" fill="black"/>
<path d="M9.28125 9.79688H13.9219V10.8281H9.28125V9.79688Z" fill="black"/>
<path d="M14.4375 25.2656H12.375C12.2382 25.2656 12.1071 25.3199 12.0104 25.4166C11.9137 25.5133 11.8594 25.6445 11.8594 25.7812V27.8438C11.8594 27.9805 11.9137 28.1117 12.0104 28.2084C12.1071 28.3051 12.2382 28.3594 12.375 28.3594H14.4375C14.5743 28.3594 14.7054 28.3051 14.8021 28.2084C14.8988 28.1117 14.9531 27.9805 14.9531 27.8438V25.7812C14.9531 25.6445 14.8988 25.5133 14.8021 25.4166C14.7054 25.3199 14.5743 25.2656 14.4375 25.2656ZM13.9219 27.3281H12.8906V26.2969H13.9219V27.3281Z" fill="black"/>
<path d="M27.8438 25.2656H25.7812C25.6445 25.2656 25.5133 25.3199 25.4166 25.4166C25.3199 25.5133 25.2656 25.6445 25.2656 25.7812V27.8438C25.2656 27.9805 25.3199 28.1117 25.4166 28.2084C25.5133 28.3051 25.6445 28.3594 25.7812 28.3594H27.8438C27.9805 28.3594 28.1117 28.3051 28.2084 28.2084C28.3051 28.1117 28.3594 27.9805 28.3594 27.8438V25.7812C28.3594 25.6445 28.3051 25.5133 28.2084 25.4166C28.1117 25.3199 27.9805 25.2656 27.8438 25.2656ZM27.3281 27.3281H26.2969V26.2969H27.3281V27.3281Z" fill="black"/>
<path d="M17.0156 14.9531H19.0781C19.2149 14.9531 19.346 14.8988 19.4427 14.8021C19.5394 14.7054 19.5938 14.5743 19.5938 14.4375V12.375C19.5938 12.2382 19.5394 12.1071 19.4427 12.0104C19.346 11.9137 19.2149 11.8594 19.0781 11.8594H17.0156C16.8789 11.8594 16.7477 11.9137 16.651 12.0104C16.5543 12.1071 16.5 12.2382 16.5 12.375V14.4375C16.5 14.5743 16.5543 14.7054 16.651 14.8021C16.7477 14.8988 16.8789 14.9531 17.0156 14.9531ZM17.5312 12.8906H18.5625V13.9219H17.5312V12.8906Z" fill="black"/>
</svg>
