<svg width="31" height="31" viewBox="0 0 31 31" fill="none" xmlns="http://www.w3.org/2000/svg">
<path d="M30.747 10.4366L15.7939 0.124067C15.7078 0.0636971 15.6052 0.031311 15.5 0.031311C15.3948 0.031311 15.2922 0.0636971 15.2061 0.124067L0.252969 10.4366C0.184976 10.4843 0.129374 10.5475 0.0908048 10.6211C0.0522351 10.6946 0.0318156 10.7763 0.03125 10.8594V30.4531C0.03125 30.5899 0.0855746 30.721 0.182273 30.8177C0.278971 30.9144 0.410123 30.9688 0.546875 30.9688H30.4531C30.5899 30.9688 30.721 30.9144 30.8177 30.8177C30.9144 30.721 30.9688 30.5899 30.9688 30.4531V10.8594C30.9682 10.7763 30.9478 10.6946 30.9092 10.6211C30.8706 10.5475 30.815 10.4843 30.747 10.4366ZM2.09375 29.9375H1.0625V11.375H2.09375V29.9375ZM27.875 29.9375H3.125V13.4375H27.875V29.9375ZM27.875 12.4063H3.125V11.375H27.875V12.4063ZM2.20203 10.3438L15.5 1.17079L28.798 10.3438H2.20203ZM29.9375 29.9375H28.9062V11.375H29.9375V29.9375Z" fill="black"/>
<path d="M15.5 3.125C15.0921 3.125 14.6933 3.24596 14.3541 3.47259C14.015 3.69922 13.7506 4.02134 13.5945 4.39822C13.4384 4.77509 13.3975 5.18979 13.4771 5.58987C13.5567 5.98996 13.7531 6.35746 14.0416 6.64591C14.33 6.93435 14.6975 7.13079 15.0976 7.21037C15.4977 7.28995 15.9124 7.24911 16.2893 7.093C16.6662 6.9369 16.9883 6.67254 17.2149 6.33336C17.4416 5.99419 17.5625 5.59542 17.5625 5.1875C17.5625 4.64049 17.3452 4.11589 16.9584 3.72909C16.5716 3.3423 16.047 3.125 15.5 3.125ZM15.5 6.21875C15.296 6.21875 15.0967 6.15827 14.9271 6.04495C14.7575 5.93164 14.6253 5.77058 14.5473 5.58214C14.4692 5.39371 14.4488 5.18636 14.4886 4.98631C14.5284 4.78627 14.6266 4.60252 14.7708 4.4583C14.915 4.31407 15.0988 4.21586 15.2988 4.17607C15.4989 4.13627 15.7062 4.1567 15.8947 4.23475C16.0831 4.3128 16.2441 4.44498 16.3575 4.61457C16.4708 4.78416 16.5313 4.98354 16.5313 5.1875C16.5313 5.461 16.4226 5.72331 16.2292 5.9167C16.0358 6.1101 15.7735 6.21875 15.5 6.21875Z" fill="black"/>
<path d="M26.6581 19.2383L26.6633 19.2331L23.0539 16.1394C22.96 16.0603 22.8415 16.0165 22.7188 16.0156H8.28125C8.15852 16.0165 8.03997 16.0603 7.94609 16.1394L4.33672 19.2331L4.34187 19.2383C4.28416 19.2849 4.23756 19.3438 4.20545 19.4107C4.17334 19.4776 4.15653 19.5508 4.15625 19.625V28.3906C4.15625 28.5274 4.21057 28.6585 4.30727 28.7552C4.40397 28.8519 4.53512 28.9062 4.67188 28.9062H26.3281C26.4649 28.9062 26.596 28.8519 26.6927 28.7552C26.7894 28.6585 26.8438 28.5274 26.8438 28.3906V19.625C26.8435 19.5508 26.8267 19.4776 26.7945 19.4107C26.7624 19.3438 26.7158 19.2849 26.6581 19.2383ZM24.9359 19.1094H18.0111L22.6259 17.1294L24.9359 19.1094ZM24.8741 20.1406L20.9141 23.3427L16.9541 20.1406H24.8741ZM16.0156 17.0469H20.2077L16.0156 18.8412V17.0469ZM8.37406 17.1294L12.9889 19.1094H6.06406L8.37406 17.1294ZM14.0459 20.1406L10.0859 23.3427L6.12594 20.1406H14.0459ZM5.1875 20.7078L9.26609 24.0078L5.1875 27.3078V20.7078ZM6.12594 27.875L10.0859 24.673L14.0459 27.875H6.12594ZM14.9844 27.3078L10.9058 24.0078L14.9844 20.7078V27.3078ZM14.9844 18.8412L10.7923 17.0469H14.9844V18.8412ZM16.0156 20.7078L20.0942 24.0078L16.0156 27.3078V20.7078ZM16.9541 27.875L20.9141 24.673L24.8741 27.875H16.9541ZM25.8125 27.3078L21.7339 24.0078L25.8125 20.7078V27.3078Z" fill="black"/>
<path d="M13.4375 8.28125H17.5625V9.3125H13.4375V8.28125Z" fill="black"/>
<path d="M18.5938 8.28125H19.625V9.3125H18.5938V8.28125Z" fill="black"/>
<path d="M11.375 8.28125H12.4062V9.3125H11.375V8.28125Z" fill="black"/>
</svg>
