<svg width="33" height="33" viewBox="0 0 33 33" fill="none" xmlns="http://www.w3.org/2000/svg">
<g clip-path="url(#clip0)">
<path d="M19.1248 7.37507C18.9333 7.18881 18.6273 7.19319 18.4412 7.38435C18.255 7.57571 18.2592 7.88172 18.4505 8.06792L19.0496 8.65102L18.4505 9.23411C18.2592 9.42038 18.2551 9.72639 18.4412 9.91768C18.6275 10.109 18.9334 10.1131 19.1248 9.92696L20.0798 8.99744C20.1732 8.90644 20.226 8.78147 20.226 8.65102C20.226 8.52057 20.1733 8.3956 20.0798 8.30459L19.1248 7.37507Z" fill="black"/>
<path d="M15.3859 8.56084H13.2831C13.016 8.56084 12.7997 8.7772 12.7997 9.04422C12.7997 9.31125 13.016 9.52761 13.2831 9.52761H15.3859C15.6529 9.52761 15.8693 9.31125 15.8693 9.04422C15.8693 8.7772 15.6529 8.56084 15.3859 8.56084Z" fill="black"/>
<path d="M19.1248 21.6854C18.9333 21.4991 18.6273 21.5035 18.4412 21.6947C18.255 21.8861 18.2592 22.1921 18.4505 22.3783L19.0496 22.9614L18.4505 23.5445C18.2592 23.7307 18.2551 24.0368 18.4412 24.228C18.6275 24.4193 18.9334 24.4235 19.1248 24.2373L20.0798 23.3078C20.1732 23.2168 20.226 23.0918 20.226 22.9614C20.226 22.8309 20.1733 22.706 20.0798 22.615L19.1248 21.6854Z" fill="black"/>
<path d="M15.3859 22.8712H13.2831C13.016 22.8712 12.7997 23.0876 12.7997 23.3546C12.7997 23.6216 13.016 23.838 13.2831 23.838H15.3859C15.6529 23.838 15.8693 23.6216 15.8693 23.3546C15.8693 23.0876 15.6529 22.8712 15.3859 22.8712Z" fill="black"/>
<path d="M32.985 14.6087C32.9253 14.3505 32.6674 14.2602 32.6507 14.2482V8.07353L32.7154 8.04156C32.8484 7.97601 32.9516 7.85742 32.9849 7.71299C33.0368 7.48812 32.926 7.26582 32.728 7.16824L32.6506 7.13009V0.955504L32.7114 0.925534C32.9426 0.811584 33.0598 0.537665 32.9612 0.299581C32.8588 0.0524091 32.5966 0.000138922 32.3384 0.00046118C32.2808 0.000525632 32.2284 0.00046118 32.1672 0.00046118H25.6428C25.3758 0.00046118 25.1594 0.216889 25.1594 0.483848V3.57127L25.0946 3.60324C24.9617 3.66878 24.8585 3.78737 24.8251 3.93181C24.7732 4.15668 24.8841 4.37898 25.0821 4.47655L25.1595 4.51471V6.77805C25.1595 7.04276 25.3634 7.27356 25.628 7.28148C25.9017 7.28967 26.1262 7.07021 26.1262 6.79829V4.99126L31.4212 7.60187L26.1262 10.2126V8.75111C26.1262 8.48641 25.9222 8.2556 25.6577 8.24768C25.3839 8.23949 25.1595 8.45895 25.1595 8.73087V10.5752C25.1595 10.6425 25.123 10.7046 25.064 10.7369C25.0636 10.7371 25.0632 10.7373 25.0629 10.7376C25.0355 10.7527 25.0048 10.7607 24.9736 10.7607H22.0795V3.71203C22.0795 3.13003 21.6077 2.65818 21.0256 2.65818H11.9744C11.3924 2.65818 10.9206 3.12997 10.9206 3.71203V10.7606H7.84052V8.07359C7.85811 8.05896 8.18759 7.95784 8.18759 7.60187C8.18759 7.24604 7.85792 7.14459 7.84052 7.13015V0.955504L7.90007 0.926114C8.13132 0.812099 8.2512 0.518974 8.1444 0.284241C8.05095 0.0787698 7.8409 0.000396729 7.6208 0.000396729C7.6208 0.000396729 7.38768 0.000396729 7.35707 0.000396729H0.83271C0.565752 0.000396729 0.349324 0.216825 0.349324 0.483783V3.5712L0.28455 3.60317C0.151587 3.66872 0.0484002 3.78731 0.0150788 3.93175C-0.036869 4.15662 0.0739875 4.37891 0.271982 4.47649L0.349389 4.51465V10.6894L0.284421 10.7214C0.151394 10.787 0.0482713 10.9057 0.0150144 11.0503C-0.0366757 11.2752 0.0741808 11.4971 0.271982 11.5946L0.349389 11.6328V14.5122C0.349389 14.7769 0.553377 15.0077 0.81795 15.0157C1.09168 15.0239 1.31616 14.8044 1.31616 14.5325V12.1095L6.61117 14.7201L1.3161 17.3306V16.4853C1.3161 16.2206 1.11211 15.9898 0.847534 15.9819C0.573808 15.9737 0.349324 16.1931 0.349324 16.4651V17.8073L0.280748 17.841C0.152167 17.9044 0.0520095 18.0182 0.017528 18.1574C-0.0911372 18.5953 0.340623 18.7426 0.349324 18.7506V24.9254L0.280748 24.9592C0.152167 25.0226 0.0520095 25.1364 0.017528 25.2755C-0.0911372 25.7135 0.340623 25.8607 0.349324 25.8688V32.0444L0.287902 32.0747C0.0581324 32.188 -0.0590403 32.4595 0.0372501 32.6969C0.114656 32.8878 0.296474 32.9996 0.485961 32.9996C0.815759 32.9996 0.741382 32.9995 0.832645 32.9995H7.35707C7.62402 32.9995 7.84045 32.7831 7.84045 32.5161V29.4284L7.90516 29.3965C8.03812 29.3309 8.14131 29.2123 8.1747 29.0679C8.22671 28.843 8.11579 28.6207 7.91792 28.5231L7.84045 28.4849V27.8001H25.1593V32.0444L25.0979 32.0747C24.8681 32.188 24.751 32.4595 24.8473 32.6969C24.9247 32.8878 25.1065 32.9996 25.296 32.9996C25.3032 32.9996 32.2136 32.9995 32.1671 32.9995C32.434 32.9995 32.6505 32.7831 32.6505 32.5161V29.4284L32.7152 29.3965C32.8481 29.3309 32.9513 29.2123 32.9847 29.0679C33.0367 28.843 32.9258 28.6207 32.7279 28.5231L32.6505 28.4849V22.3097L32.7152 22.2777C32.8482 22.2122 32.9514 22.0936 32.9847 21.9492C33.0367 21.7243 32.9258 21.502 32.7278 21.4044L32.6504 21.3663V15.1916C32.6596 15.1833 33.0843 15.0388 32.985 14.6087ZM26.1262 0.967169H30.4409L26.1262 3.09452V0.967169ZM26.3889 4.04286L31.6839 1.43212V6.65347L26.3889 4.04286ZM31.6839 8.55028V13.7716L26.3889 11.161L31.6839 8.55028ZM21.5812 21.5083C21.3166 21.5162 21.1126 21.747 21.1126 22.0117V25.071H11.8874V18.0224C11.8874 17.9743 11.9264 17.9353 11.9745 17.9353H14.9483V20.1073C14.9483 20.5052 15.2708 20.8277 15.6687 20.8277H17.3315C17.7294 20.8277 18.0519 20.5052 18.0519 20.1073V17.9353H21.0257C21.0738 17.9353 21.1127 17.9743 21.1127 18.0224V19.9788C21.1127 20.2435 21.3167 20.4743 21.5813 20.4822C21.855 20.4904 22.0795 20.2709 22.0795 19.999V18.0224C22.0795 17.4404 21.6077 16.9685 21.0257 16.9685H11.9744C11.3924 16.9685 10.9206 17.4403 10.9206 18.0224V25.071H7.84052V22.3098C7.85811 22.2951 8.18759 22.194 8.18759 21.8381C8.18759 21.4822 7.85792 21.3808 7.84052 21.3663V15.1916C7.85811 15.177 8.18759 15.0759 8.18759 14.7199C8.18759 14.3641 7.85792 14.2626 7.84052 14.2482V13.4897H25.1594V17.8072C25.1418 17.8218 24.8123 17.9229 24.8123 18.2789C24.8123 18.6347 25.142 18.7362 25.1594 18.7506V24.7433C25.1594 24.852 25.1052 24.9538 25.0146 25.014C25.0137 25.0147 25.0127 25.0153 25.0117 25.016C24.9581 25.0518 24.8952 25.0709 24.8307 25.0709H22.0793V21.9914C22.0793 21.7195 21.8549 21.5001 21.5812 21.5083ZM15.915 17.9353H17.085V19.8609H15.915V17.9353ZM26.1262 19.2273L31.4212 21.8381L26.1262 24.4487V19.2273ZM26.1262 12.1094L31.4212 14.72L26.1262 17.3306V12.1094ZM17.085 3.62496V5.55057H15.915V3.62496H17.085ZM11.8874 3.71203C11.8874 3.66401 11.9264 3.62496 11.9745 3.62496H14.9483V5.79697C14.9483 6.19419 15.2714 6.51735 15.6687 6.51735H17.3315C17.7287 6.51735 18.0519 6.19419 18.0519 5.79697V3.62496H21.0257C21.0737 3.62496 21.1127 3.66395 21.1127 3.71203V10.7606H11.8874V3.71203ZM25.1594 11.7274V12.523H7.84058V11.7274H25.1594ZM6.87381 6.65353L1.57874 4.04286L6.87374 1.43212V6.65353H6.87381ZM1.3161 0.967169H5.6308L1.3161 3.09452V0.967169ZM1.3161 4.99126L6.6111 7.60187L1.3161 10.2126V4.99126ZM1.57874 11.161L6.87374 8.55028V13.7716L1.57874 11.161ZM6.87381 15.6683V20.8896L1.5788 18.2789L6.87381 15.6683ZM1.3161 19.2273L6.6111 21.8381L1.3161 24.4487V19.2273ZM1.3161 26.3456L6.61123 28.9567L1.3161 31.5677V26.3456ZM6.87381 32.0328H2.55898L6.87381 29.9051V32.0328ZM1.57867 25.3971L6.87374 22.7865V28.0083L1.57867 25.3971ZM7.84058 26.8334V26.0378H25.1595V26.8334H7.84058ZM26.1262 26.3456L31.4213 28.9567L26.1262 31.5677V26.3456ZM31.6839 32.0328H27.369L31.6839 29.9051V32.0328ZM31.6839 28.0082L26.3888 25.3971L31.6839 22.7865V28.0082ZM31.6839 20.8896L26.3889 18.2789L31.6839 15.6683V20.8896Z" fill="black"/>
</g>
<defs>
<clipPath id="clip0">
<rect width="33" height="33" fill="white"/>
</clipPath>
</defs>
</svg>
