<svg width="33" height="33" viewBox="0 0 33 33" fill="none" xmlns="http://www.w3.org/2000/svg">
<path d="M31.9688 14.9531H1.03125C0.894498 14.9531 0.763346 15.0074 0.666648 15.1041C0.56995 15.2008 0.515625 15.332 0.515625 15.4688V31.9688C0.515625 32.1055 0.56995 32.2367 0.666648 32.3334C0.763346 32.43 0.894498 32.4844 1.03125 32.4844H31.9688C32.1055 32.4844 32.2367 32.43 32.3334 32.3334C32.43 32.2367 32.4844 32.1055 32.4844 31.9688V15.4688C32.4844 15.332 32.43 15.2008 32.3334 15.1041C32.2367 15.0074 32.1055 14.9531 31.9688 14.9531ZM31.4531 31.4531H1.54688V15.9844H31.4531V31.4531Z" fill="black"/>
<path d="M16.5 26.2969C16.2265 26.2969 15.9642 26.1882 15.7708 25.9948C15.5774 25.8014 15.4688 25.5391 15.4688 25.2656H14.4375C14.439 25.7217 14.5916 26.1645 14.8715 26.5246C15.1514 26.8847 15.5428 27.1419 15.9844 27.2559V28.3594H17.0156V27.2559C17.4959 27.1256 17.9129 26.8259 18.1896 26.4123C18.4663 25.9986 18.5841 25.4989 18.5213 25.0052C18.4585 24.5115 18.2193 24.0572 17.8478 23.726C17.4763 23.3948 16.9976 23.2091 16.5 23.2031C16.296 23.2031 16.0967 23.1426 15.9271 23.0293C15.7575 22.916 15.6253 22.755 15.5472 22.5665C15.4692 22.3781 15.4488 22.1707 15.4886 21.9707C15.5284 21.7706 15.6266 21.5869 15.7708 21.4427C15.915 21.2984 16.0988 21.2002 16.2988 21.1604C16.4989 21.1206 16.7062 21.1411 16.8946 21.2191C17.0831 21.2972 17.2441 21.4294 17.3575 21.5989C17.4708 21.7685 17.5312 21.9679 17.5312 22.1719H18.5625C18.561 21.7158 18.4084 21.273 18.1285 20.9129C17.8486 20.5528 17.4572 20.2956 17.0156 20.1816V19.0781H15.9844V20.1816C15.5041 20.3119 15.0871 20.6116 14.8104 21.0252C14.5337 21.4389 14.4159 21.9386 14.4787 22.4323C14.5415 22.926 14.7807 23.3803 15.1522 23.7115C15.5237 24.0427 16.0024 24.2284 16.5 24.2344C16.7735 24.2344 17.0358 24.343 17.2292 24.5364C17.4226 24.7298 17.5312 24.9921 17.5312 25.2656C17.5312 25.5391 17.4226 25.8014 17.2292 25.9948C17.0358 26.1882 16.7735 26.2969 16.5 26.2969Z" fill="black"/>
<path d="M16.5 30.4219C17.8257 30.4219 19.1217 30.0287 20.224 29.2922C21.3264 28.5556 22.1855 27.5088 22.6929 26.2839C23.2002 25.0591 23.333 23.7113 23.0743 22.411C22.8157 21.1108 22.1773 19.9164 21.2398 18.9789C20.3024 18.0415 19.108 17.4031 17.8077 17.1444C16.5074 16.8858 15.1597 17.0185 13.9348 17.5259C12.71 18.0332 11.6631 18.8924 10.9266 19.9947C10.19 21.097 9.79688 22.393 9.79688 23.7187C9.79688 25.4965 10.5031 27.2015 11.7602 28.4586C13.0173 29.7156 14.7222 30.4219 16.5 30.4219ZM16.5 18.0469C17.6218 18.0469 18.7184 18.3795 19.6511 19.0028C20.5838 19.626 21.3108 20.5118 21.7401 21.5482C22.1694 22.5846 22.2817 23.725 22.0629 24.8253C21.844 25.9255 21.3038 26.9361 20.5106 27.7294C19.7174 28.5226 18.7068 29.0628 17.6065 29.2816C16.5063 29.5005 15.3659 29.3882 14.3295 28.9589C13.2931 28.5296 12.4072 27.8026 11.784 26.8699C11.1608 25.9371 10.8281 24.8405 10.8281 23.7187C10.8281 22.2145 11.4257 20.7718 12.4894 19.7081C13.5531 18.6444 14.9957 18.0469 16.5 18.0469Z" fill="black"/>
<path d="M24.75 23.7188H25.7813V27.8438C25.7813 27.9805 25.8356 28.1117 25.9323 28.2084C26.029 28.3051 26.1601 28.3594 26.2969 28.3594H28.3594C28.4961 28.3594 28.6273 28.3051 28.724 28.2084C28.8207 28.1117 28.875 27.9805 28.875 27.8438V23.7188H29.9062C30.0007 23.7183 30.0933 23.6919 30.1738 23.6425C30.2542 23.593 30.3196 23.5224 30.3627 23.4384C30.4058 23.3543 30.425 23.26 30.4181 23.1658C30.4113 23.0716 30.3787 22.981 30.3239 22.9041L27.7458 19.2947C27.698 19.2287 27.6352 19.1749 27.5626 19.1378C27.49 19.1008 27.4096 19.0815 27.3281 19.0815C27.2466 19.0815 27.1663 19.1008 27.0937 19.1378C27.0211 19.1749 26.9583 19.2287 26.9105 19.2947L24.3323 22.9041C24.2776 22.981 24.245 23.0716 24.2381 23.1658C24.2313 23.26 24.2504 23.3543 24.2935 23.4384C24.3366 23.5224 24.402 23.593 24.4825 23.6425C24.563 23.6919 24.6555 23.7183 24.75 23.7188ZM27.3281 20.4806L28.9059 22.6875H28.3594C28.2226 22.6875 28.0915 22.7418 27.9948 22.8385C27.8981 22.9352 27.8438 23.0664 27.8438 23.2031V27.3281H26.8125V23.2031C26.8125 23.0664 26.7582 22.9352 26.6615 22.8385C26.5648 22.7418 26.4336 22.6875 26.2969 22.6875H25.7503L27.3281 20.4806Z" fill="black"/>
<path d="M5.25422 28.1428C5.30202 28.2088 5.3648 28.2626 5.4374 28.2997C5.51 28.3367 5.59036 28.3561 5.67188 28.3561C5.75339 28.3561 5.83375 28.3367 5.90635 28.2997C5.97895 28.2626 6.04173 28.2088 6.08953 28.1428L8.66765 24.5334C8.72245 24.4565 8.75505 24.3659 8.76189 24.2717C8.76873 24.1775 8.74956 24.0832 8.70646 23.9991C8.66336 23.9151 8.598 23.8445 8.5175 23.795C8.437 23.7456 8.34447 23.7192 8.25 23.7187H7.21875V19.5937C7.21875 19.457 7.16442 19.3258 7.06773 19.2291C6.97103 19.1324 6.83988 19.0781 6.70312 19.0781H4.64063C4.50387 19.0781 4.37272 19.1324 4.27603 19.2291C4.17933 19.3258 4.125 19.457 4.125 19.5937V23.7187H3.09375C2.99928 23.7192 2.90675 23.7456 2.82625 23.795C2.74575 23.8445 2.68039 23.9151 2.63729 23.9991C2.59419 24.0832 2.57502 24.1775 2.58186 24.2717C2.5887 24.3659 2.6213 24.4565 2.6761 24.5334L5.25422 28.1428ZM4.64063 24.75C4.77738 24.75 4.90853 24.6957 5.00523 24.599C5.10193 24.5023 5.15625 24.3711 5.15625 24.2344V20.1094H6.1875V24.2344C6.1875 24.3711 6.24182 24.5023 6.33852 24.599C6.43522 24.6957 6.56637 24.75 6.70312 24.75H7.24969L5.67188 26.9569L4.09406 24.75H4.64063Z" fill="black"/>
<path d="M9.28125 13.9219H11.3438C11.4805 13.9219 11.6117 13.8676 11.7084 13.7709C11.8051 13.6742 11.8594 13.543 11.8594 13.4062V9.28125C11.8594 9.1445 11.8051 9.01335 11.7084 8.91665C11.6117 8.81995 11.4805 8.76562 11.3438 8.76562H9.28125C9.1445 8.76562 9.01335 8.81995 8.91665 8.91665C8.81995 9.01335 8.76562 9.1445 8.76562 9.28125V13.4062C8.76562 13.543 8.81995 13.6742 8.91665 13.7709C9.01335 13.8676 9.1445 13.9219 9.28125 13.9219ZM9.79688 9.79688H10.8281V12.8906H9.79688V9.79688Z" fill="black"/>
<path d="M13.4062 7.73438C13.2695 7.73438 13.1383 7.7887 13.0416 7.8854C12.9449 7.9821 12.8906 8.11325 12.8906 8.25V13.4062C12.8906 13.543 12.9449 13.6742 13.0416 13.7709C13.1383 13.8676 13.2695 13.9219 13.4062 13.9219H15.4688C15.6055 13.9219 15.7367 13.8676 15.8334 13.7709C15.9301 13.6742 15.9844 13.543 15.9844 13.4062V8.25C15.9844 8.11325 15.9301 7.9821 15.8334 7.8854C15.7367 7.7887 15.6055 7.73438 15.4688 7.73438H13.4062ZM14.9531 12.8906H13.9219V8.76562H14.9531V12.8906Z" fill="black"/>
<path d="M17.5312 6.70312C17.3945 6.70312 17.2633 6.75745 17.1666 6.85415C17.0699 6.95085 17.0156 7.082 17.0156 7.21875V13.4062C17.0156 13.543 17.0699 13.6742 17.1666 13.7709C17.2633 13.8676 17.3945 13.9219 17.5312 13.9219H19.5938C19.7305 13.9219 19.8617 13.8676 19.9584 13.7709C20.0551 13.6742 20.1094 13.543 20.1094 13.4062V7.21875C20.1094 7.082 20.0551 6.95085 19.9584 6.85415C19.8617 6.75745 19.7305 6.70312 19.5938 6.70312H17.5312ZM19.0781 12.8906H18.0469V7.73438H19.0781V12.8906Z" fill="black"/>
<path d="M21.6562 5.67188C21.5195 5.67188 21.3883 5.7262 21.2916 5.8229C21.1949 5.9196 21.1406 6.05075 21.1406 6.1875V13.4062C21.1406 13.543 21.1949 13.6742 21.2916 13.7709C21.3883 13.8676 21.5195 13.9219 21.6562 13.9219H23.7188C23.8555 13.9219 23.9867 13.8676 24.0834 13.7709C24.1801 13.6742 24.2344 13.543 24.2344 13.4062V6.1875C24.2344 6.05075 24.1801 5.9196 24.0834 5.8229C23.9867 5.7262 23.8555 5.67188 23.7188 5.67188H21.6562ZM23.2031 12.8906H22.1719V6.70312H23.2031V12.8906Z" fill="black"/>
<path d="M13.597 5.15625H19.5937C19.6615 5.15664 19.7288 5.14364 19.7916 5.11798C19.8545 5.09232 19.9116 5.05451 19.9598 5.00672L22.6874 2.27391V3.09375H23.7187V1.03125C23.7187 0.894498 23.6644 0.763346 23.5677 0.666648C23.471 0.56995 23.3398 0.515625 23.2031 0.515625H21.1406V1.54688H21.9604L19.3823 4.125H13.4062C13.2833 4.12499 13.1644 4.16888 13.071 4.24875L9.46167 7.3425L10.132 8.12625L13.597 5.15625Z" fill="black"/>
</svg>
