<svg width="25" height="33" viewBox="0 0 25 33" fill="none" xmlns="http://www.w3.org/2000/svg">
<path d="M22.9657 0H1.53263C0.687521 0 0 0.687521 0 1.53263V11.4512C0 11.7182 0.216369 11.9346 0.483398 11.9346C0.750428 11.9346 0.966797 11.7182 0.966797 11.4512V1.53263C0.966797 1.22061 1.22061 0.966797 1.53263 0.966797H22.9657C23.2777 0.966797 23.5315 1.22061 23.5315 1.53263V31.4673C23.5315 31.7793 23.2776 32.0331 22.9657 32.0331H1.53263C1.22061 32.0331 0.966797 31.7793 0.966797 31.4673V13.3848C0.966797 13.1178 0.750428 12.9014 0.483398 12.9014C0.216369 12.9014 0 13.1178 0 13.3848V31.4674C0 32.3125 0.687521 33 1.53263 33H22.9657C23.8108 33 24.4983 32.3124 24.4983 31.4674V1.53263C24.4984 0.687521 23.8109 0 22.9657 0V0Z" fill="black"/>
<path d="M17.0333 1.98227H7.46509C7.19806 1.98227 6.98169 2.1987 6.98169 2.46567V3.60275H2.86816C2.60113 3.60275 2.38477 3.81918 2.38477 4.08615V30.1318C2.38477 30.3988 2.60113 30.6152 2.86816 30.6152H21.6302C21.8972 30.6152 22.1136 30.3988 22.1136 30.1318V20.9587C22.1136 20.6917 21.8972 20.4753 21.6302 20.4753C21.3632 20.4753 21.1468 20.6917 21.1468 20.9587V29.6484H3.35156V4.56948H6.98169V5.70553C6.98169 5.9725 7.19806 6.18893 7.46509 6.18893H17.0332C17.3003 6.18893 17.5166 5.9725 17.5166 5.70553V4.56948H21.1467V19.025C21.1467 19.292 21.3631 19.5084 21.6301 19.5084C21.8971 19.5084 22.1135 19.292 22.1135 19.025V4.08608C22.1135 3.81912 21.8971 3.60268 21.6301 3.60268H17.5166V2.46567C17.5167 2.1987 17.3003 1.98227 17.0333 1.98227ZM16.5499 5.22213H7.94849V2.94907H16.5498V5.22213H16.5499Z" fill="black"/>
<path d="M11.5405 8.97647C11.5405 8.21895 10.9241 7.60258 10.1667 7.60258H6.95365C6.19613 7.60258 5.57983 8.21895 5.57983 8.97647V12.1895C5.57983 12.947 6.1962 13.5633 6.95365 13.5633H10.1667C10.9242 13.5633 11.5405 12.947 11.5405 12.1895V8.97647ZM10.5737 12.1895C10.5737 12.4139 10.3911 12.5966 10.1667 12.5966H6.95365C6.72922 12.5966 6.54663 12.414 6.54663 12.1895V8.97653C6.54663 8.75211 6.72922 8.56945 6.95365 8.56945H10.1667C10.3911 8.56945 10.5737 8.75204 10.5737 8.97653V12.1895Z" fill="black"/>
<path d="M8.99529 9.67989L8.27032 10.4606L8.11247 10.3027C7.92368 10.114 7.6176 10.1139 7.42888 10.3026C7.24003 10.4914 7.24003 10.7975 7.42881 10.9862L7.94141 11.499C8.03216 11.5897 8.15514 11.6406 8.28327 11.6406C8.28623 11.6406 8.28926 11.6406 8.29223 11.6405C8.42352 11.638 8.54817 11.5824 8.63751 11.4861L9.70382 10.3378C9.88545 10.1421 9.87417 9.83625 9.67849 9.65456C9.48275 9.47287 9.17685 9.48427 8.99529 9.67989Z" fill="black"/>
<path d="M13.6014 9.10407H15.8994C16.1664 9.10407 16.3828 8.88764 16.3828 8.62067C16.3828 8.35371 16.1664 8.13728 15.8994 8.13728H13.6014C13.3344 8.13728 13.118 8.35371 13.118 8.62067C13.118 8.88764 13.3345 9.10407 13.6014 9.10407Z" fill="black"/>
<path d="M13.6014 13.0288H15.8994C16.1664 13.0288 16.3828 12.8123 16.3828 12.5454C16.3828 12.2784 16.1664 12.062 15.8994 12.062H13.6014C13.3344 12.062 13.118 12.2784 13.118 12.5454C13.118 12.8123 13.3345 13.0288 13.6014 13.0288Z" fill="black"/>
<path d="M18.693 10.0996H13.6014C13.3344 10.0996 13.118 10.316 13.118 10.583C13.118 10.85 13.3344 11.0664 13.6014 11.0664H18.693C18.96 11.0664 19.1764 10.85 19.1764 10.583C19.1764 10.316 18.96 10.0996 18.693 10.0996Z" fill="black"/>
<path d="M11.5405 16.2417C11.5405 15.4842 10.9241 14.8679 10.1667 14.8679H6.95365C6.19613 14.8679 5.57983 15.4842 5.57983 16.2417V19.4547C5.57983 20.2122 6.1962 20.8286 6.95365 20.8286H10.1667C10.9242 20.8286 11.5405 20.2122 11.5405 19.4547V16.2417ZM10.5737 19.4547C10.5737 19.6792 10.3911 19.8618 10.1667 19.8618H6.95365C6.72922 19.8618 6.54663 19.6792 6.54663 19.4547V16.2417C6.54663 16.0173 6.72922 15.8347 6.95365 15.8347H10.1667C10.3911 15.8347 10.5737 16.0173 10.5737 16.2417V19.4547Z" fill="black"/>
<path d="M8.99529 16.9451L8.27032 17.7258L8.11247 17.5679C7.92368 17.3791 7.6176 17.3791 7.42888 17.5679C7.24003 17.7566 7.24003 18.0627 7.42881 18.2515L7.94141 18.7642C8.03216 18.8549 8.15514 18.9058 8.28327 18.9058C8.28623 18.9058 8.28926 18.9058 8.29223 18.9057C8.42352 18.9033 8.54817 18.8476 8.63751 18.7513L9.70382 17.603C9.88545 17.4073 9.87417 17.1015 9.67849 16.9198C9.48275 16.7382 9.17685 16.7496 8.99529 16.9451Z" fill="black"/>
<path d="M13.6014 16.3693H15.8994C16.1664 16.3693 16.3828 16.1528 16.3828 15.8859C16.3828 15.6189 16.1664 15.4025 15.8994 15.4025H13.6014C13.3344 15.4025 13.118 15.6189 13.118 15.8859C13.118 16.1528 13.3345 16.3693 13.6014 16.3693Z" fill="black"/>
<path d="M13.6014 20.294H15.8994C16.1664 20.294 16.3828 20.0775 16.3828 19.8106C16.3828 19.5436 16.1664 19.3272 15.8994 19.3272H13.6014C13.3344 19.3272 13.118 19.5436 13.118 19.8106C13.118 20.0775 13.3345 20.294 13.6014 20.294Z" fill="black"/>
<path d="M18.693 17.3648H13.6014C13.3344 17.3648 13.118 17.5813 13.118 17.8482C13.118 18.1152 13.3344 18.3316 13.6014 18.3316H18.693C18.96 18.3316 19.1764 18.1152 19.1764 17.8482C19.1764 17.5812 18.96 17.3648 18.693 17.3648Z" fill="black"/>
<path d="M10.1666 22.1331H6.95353C6.19601 22.1331 5.57971 22.7494 5.57971 23.5069V26.7199C5.57971 27.4775 6.19608 28.0938 6.95353 28.0938H10.1666C10.9241 28.0938 11.5404 27.4775 11.5404 26.7199V23.5069C11.5405 22.7494 10.9241 22.1331 10.1666 22.1331ZM10.5737 26.7199C10.5737 26.9444 10.3911 27.127 10.1667 27.127H6.9536C6.72917 27.127 6.54658 26.9444 6.54658 26.7199V23.5069C6.54658 23.2825 6.72917 23.0999 6.9536 23.0999H10.1667C10.3911 23.0999 10.5737 23.2825 10.5737 23.5069V26.7199Z" fill="black"/>
<path d="M8.99529 24.2103L8.27032 24.991L8.11247 24.8331C7.92368 24.6444 7.6176 24.6443 7.42888 24.8331C7.24003 25.0219 7.24003 25.328 7.42881 25.5167L7.94141 26.0295C8.03216 26.1202 8.15514 26.1711 8.28327 26.1711C8.28623 26.1711 8.28926 26.1711 8.29223 26.171C8.42352 26.1685 8.54817 26.1129 8.63751 26.0166L9.70382 24.8683C9.88545 24.6726 9.87417 24.3667 9.67849 24.1851C9.48275 24.0034 9.17685 24.0148 8.99529 24.2103Z" fill="black"/>
<path d="M13.6014 23.6345H15.8994C16.1664 23.6345 16.3828 23.4181 16.3828 23.1511C16.3828 22.8842 16.1664 22.6677 15.8994 22.6677H13.6014C13.3344 22.6677 13.118 22.8842 13.118 23.1511C13.118 23.4181 13.3345 23.6345 13.6014 23.6345Z" fill="black"/>
<path d="M13.6014 26.5924C13.3344 26.5924 13.118 26.8088 13.118 27.0758C13.118 27.3427 13.3344 27.5592 13.6014 27.5592H15.8994C16.1664 27.5592 16.3828 27.3427 16.3828 27.0758C16.3828 26.8088 16.1664 26.5924 15.8994 26.5924H13.6014Z" fill="black"/>
<path d="M19.1764 25.1135C19.1764 24.8465 18.96 24.6301 18.693 24.6301H13.6014C13.3344 24.6301 13.118 24.8465 13.118 25.1135C13.118 25.3804 13.3344 25.5969 13.6014 25.5969H18.693C18.96 25.5969 19.1764 25.3804 19.1764 25.1135Z" fill="black"/>
</svg>
