<svg width="33" height="33" viewBox="0 0 33 33" fill="none" xmlns="http://www.w3.org/2000/svg">
<path d="M20.652 3.88712H7.97229C7.70526 3.88712 7.48889 4.10348 7.48889 4.37051C7.48889 4.63754 7.70526 4.85391 7.97229 4.85391H20.652C20.919 4.85391 21.1354 4.63754 21.1354 4.37051C21.1354 4.10348 20.919 3.88712 20.652 3.88712Z" fill="black"/>
<path d="M20.652 8.70743H7.97229C7.70526 8.70743 7.48889 8.9238 7.48889 9.19083C7.48889 9.45786 7.70526 9.67423 7.97229 9.67423H20.652C20.919 9.67423 21.1354 9.45786 21.1354 9.19083C21.1354 8.9238 20.919 8.70743 20.652 8.70743Z" fill="black"/>
<path d="M20.652 13.5278H7.97229C7.70526 13.5278 7.48889 13.7442 7.48889 14.0112C7.48889 14.2782 7.70526 14.4946 7.97229 14.4946H20.652C20.919 14.4946 21.1354 14.2782 21.1354 14.0112C21.1354 13.7442 20.919 13.5278 20.652 13.5278Z" fill="black"/>
<path d="M23.9399 17.0536C20.1459 17.0536 17.0592 20.1402 17.0592 23.9343C17.0592 27.7283 20.1458 30.815 23.9399 30.815C27.734 30.815 30.8206 27.7283 30.8206 23.9343C30.8206 20.1402 27.7339 17.0536 23.9399 17.0536ZM23.9399 29.8482C20.679 29.8482 18.026 27.1953 18.026 23.9343C18.026 20.6733 20.679 18.0204 23.9399 18.0204C27.2008 18.0204 29.8538 20.6733 29.8538 23.9343C29.8538 27.1953 27.2008 29.8482 23.9399 29.8482Z" fill="black"/>
<path d="M23.9399 19.9892C24.207 19.9892 24.4233 19.7729 24.4233 19.5058V19.2844C24.4233 19.0173 24.207 18.801 23.9399 18.801C23.6729 18.801 23.4565 19.0173 23.4565 19.2844V19.5058C23.4565 19.7729 23.6729 19.9892 23.9399 19.9892Z" fill="black"/>
<path d="M26.8862 20.3045L26.7296 20.461C26.5407 20.6498 26.5407 20.9559 26.7294 21.1446C26.918 21.3333 27.2241 21.3337 27.413 21.1448L27.5696 20.9883C27.7584 20.7995 27.7585 20.4934 27.5698 20.3047C27.381 20.1158 27.0749 20.1158 26.8862 20.3045Z" fill="black"/>
<path d="M27.885 23.9343C27.885 24.2013 28.1014 24.4177 28.3684 24.4177H28.5899C28.8569 24.4177 29.0733 24.2013 29.0733 23.9343C29.0733 23.6673 28.8569 23.4509 28.5899 23.4509H28.3684C28.1014 23.4509 27.885 23.6673 27.885 23.9343Z" fill="black"/>
<path d="M19.5115 23.4509H19.29C19.023 23.4509 18.8066 23.6673 18.8066 23.9343C18.8066 24.2013 19.023 24.4177 19.29 24.4177H19.5115C19.7785 24.4177 19.9949 24.2013 19.9949 23.9343C19.9949 23.6673 19.7785 23.4509 19.5115 23.4509Z" fill="black"/>
<path d="M27.413 26.7239C27.2241 26.535 26.918 26.5351 26.7294 26.7241C26.5407 26.9129 26.5407 27.2189 26.7296 27.4077L26.8862 27.5642C27.0748 27.7528 27.381 27.753 27.5698 27.564C27.7585 27.3752 27.7584 27.0692 27.5696 26.8804L27.413 26.7239Z" fill="black"/>
<path d="M23.9399 27.8794C23.6729 27.8794 23.4565 28.0958 23.4565 28.3628V28.5843C23.4565 28.8513 23.6729 29.0677 23.9399 29.0677C24.207 29.0677 24.4233 28.8513 24.4233 28.5843V28.3628C24.4233 28.0958 24.2069 27.8794 23.9399 27.8794Z" fill="black"/>
<path d="M20.4666 26.7239L20.31 26.8804C20.1213 27.0693 20.1213 27.3753 20.31 27.5641C20.499 27.7529 20.8049 27.7528 20.9937 27.5641L21.1503 27.4075C21.339 27.2187 21.339 26.9127 21.1503 26.7239C20.9615 26.5352 20.6555 26.5352 20.4666 26.7239Z" fill="black"/>
<path d="M20.9938 20.3045C20.805 20.1158 20.499 20.1158 20.3102 20.3045C20.1214 20.4934 20.1214 20.7994 20.3102 20.9882L20.4667 21.1448C20.6556 21.3335 20.9616 21.3335 21.1504 21.1448C21.3392 20.9559 21.3392 20.6499 21.1504 20.4611L20.9938 20.3045Z" fill="black"/>
<path d="M25.2575 23.4509H24.4233V21.383C24.4233 21.1159 24.207 20.8996 23.9399 20.8996C23.6729 20.8996 23.4565 21.1159 23.4565 21.383V23.9343C23.4565 24.2013 23.6729 24.4177 23.9399 24.4177H25.2575C25.5245 24.4177 25.7409 24.2013 25.7409 23.9343C25.7409 23.6672 25.5245 23.4509 25.2575 23.4509Z" fill="black"/>
<path d="M31.2933 18.6409C31.1371 18.4243 30.8351 18.3755 30.6185 18.5315C30.402 18.6877 30.353 18.9898 30.5091 19.2064C31.5062 20.5892 32.0332 22.224 32.0332 23.9338C32.0332 28.3964 28.4026 32.0271 23.94 32.0271C19.4773 32.0271 15.8466 28.3964 15.8466 23.9338C15.8466 19.4712 19.4773 15.8405 23.94 15.8405C25.9077 15.8405 27.8047 16.5556 29.2814 17.854C29.4818 18.0301 29.7873 18.0107 29.9636 17.8101C30.1398 17.6097 30.1203 17.3042 29.9197 17.1279C28.3302 15.7302 26.3057 14.9368 24.1942 14.8777V7.32259H28.3219C28.8368 7.32259 29.2558 6.90365 29.2558 6.38873V3.01931C29.2558 1.32091 27.8489 0.0050354 26.2913 0.0050354H14.9301C14.6631 0.0050354 14.4467 0.221405 14.4467 0.488434C14.4467 0.755463 14.6631 0.971832 14.9301 0.971832H24.0321C23.5332 1.50989 23.2274 2.22938 23.2274 3.01931V14.9016C20.6284 15.1048 18.334 16.4093 16.8116 18.3476H7.97227C7.70524 18.3476 7.48887 18.564 7.48887 18.831C7.48887 19.098 7.70524 19.3144 7.97227 19.3144H16.1489C15.6006 20.2356 15.2107 21.2615 15.0178 22.3547H5.01342V2.50105C5.01342 1.65787 5.69946 0.971832 6.54264 0.971832H12.9974C13.2644 0.971832 13.4808 0.755463 13.4808 0.488434C13.4808 0.221405 13.2644 0.0050354 12.9974 0.0050354H6.54264C5.1663 0.0050354 4.04663 1.12472 4.04663 2.50105V22.3547H0.483398C0.216369 22.3547 0 22.571 0 22.8381V23.775C0 26.0146 1.82209 27.8366 4.06164 27.8366H5.61844C5.88547 27.8366 6.10184 27.6202 6.10184 27.3532C6.10184 27.0862 5.88547 26.8698 5.61844 26.8698H4.06164C2.35512 26.8698 0.966797 25.4815 0.966797 23.775V23.3215H14.9009C14.8873 23.5239 14.8798 23.728 14.8798 23.9338C14.8798 24.961 15.0519 25.9486 15.3683 26.8698H7.5512C7.28417 26.8698 7.0678 27.0862 7.0678 27.3532C7.0678 27.6202 7.28417 27.8366 7.5512 27.8366H15.7645C17.2252 30.8842 20.3408 32.9939 23.9399 32.9939C28.9356 32.9939 32.9999 28.9295 32.9999 23.9338C33 22.0197 32.4099 20.1894 31.2933 18.6409ZM28.289 3.01931V6.3558H24.1942V3.01931C24.1942 1.89029 25.1126 0.971832 26.2416 0.971832C27.3705 0.971832 28.289 1.89029 28.289 3.01931Z" fill="black"/>
</svg>
