<svg width="33" height="33" viewBox="0 0 33 33" fill="none" xmlns="http://www.w3.org/2000/svg">
<g clip-path="url(#clip0)">
<path d="M31.4082 17.5656C31.1407 17.5656 30.9238 17.7824 30.9238 18.0499V31.1391C30.9238 31.6311 30.5235 32.0313 30.0316 32.0313H18.6253C18.1333 32.0313 17.7331 31.631 17.7331 31.1391V29.8518C17.7331 29.5843 17.5162 29.3674 17.2488 29.3674C16.9813 29.3674 16.7644 29.5843 16.7644 29.8518V31.1391C16.7644 31.4622 16.8473 31.7662 16.9928 32.0313H2.2377C2.14869 32.0313 2.07624 31.9588 2.07624 31.8698V20.1846C2.07624 19.9171 1.85936 19.7002 1.59188 19.7002C1.3244 19.7002 1.10751 19.9171 1.10751 20.1846V31.8699C1.10751 32.493 1.6145 33 2.23763 33H30.0315C31.0576 33 31.8924 32.1652 31.8924 31.1391V18.0499C31.8925 17.7824 31.6756 17.5656 31.4082 17.5656Z" fill="black"/>
<path d="M30.0325 10.4016H25.3504V6.48618C25.3507 6.35895 25.2984 6.2334 25.2085 6.14361L19.2068 0.141927C19.117 0.0520146 18.9915 -0.000256863 18.8643 9.49224e-07H2.23864C1.61551 9.49224e-07 1.10852 0.50699 1.10852 1.13012V18.2472C1.10852 18.5147 1.32541 18.7316 1.59289 18.7316C1.86037 18.7316 2.07725 18.5147 2.07725 18.2472V1.13012C2.07725 1.04111 2.1497 0.968668 2.23871 0.968668H18.38V5.19454C18.38 6.17378 19.1767 6.97048 20.1559 6.97048H24.3818V10.4015H18.6263C17.6002 10.4015 16.7654 11.2363 16.7654 12.2624V12.3382H9.09033C8.82285 12.3382 8.60597 12.555 8.60597 12.8226C8.60597 13.0901 8.82285 13.3069 9.09033 13.3069H16.7654V16.5969H9.09033C8.82285 16.5969 8.60597 16.8138 8.60597 17.0812C8.60597 17.3487 8.82285 17.5656 9.09033 17.5656H16.7654V20.8556H9.09033C8.82285 20.8556 8.60597 21.0724 8.60597 21.3399C8.60597 21.6074 8.82285 21.8243 9.09033 21.8243H16.7654V25.1143H9.09033C8.82285 25.1143 8.60597 25.3311 8.60597 25.5987C8.60597 25.8662 8.82285 26.083 9.09033 26.083H16.7654V27.9145C16.7654 28.182 16.9822 28.3989 17.2498 28.3989C17.5173 28.3989 17.7341 28.182 17.7341 27.9145V12.2624C17.7341 11.7704 18.1344 11.3702 18.6263 11.3702H30.0326C30.5245 11.3702 30.9248 11.7705 30.9248 12.2624V16.1125C30.9248 16.38 31.1417 16.5969 31.4092 16.5969C31.6766 16.5969 31.8935 16.3801 31.8935 16.1125V12.2624C31.8934 11.2364 31.0586 10.4016 30.0325 10.4016ZM19.3486 5.19454V1.65368L23.6968 6.00182H20.1558C19.7107 6.00182 19.3486 5.63972 19.3486 5.19454Z" fill="black"/>
<path d="M29.5219 13.7648C29.5219 13.1417 29.0149 12.6347 28.3917 12.6347H20.3498C19.7267 12.6347 19.2197 13.1417 19.2197 13.7648V16.4995C19.2197 17.1227 19.7267 17.6297 20.3498 17.6297H28.3917C29.0149 17.6297 29.5219 17.1227 29.5219 16.4995V13.7648ZM28.5532 16.4995C28.5532 16.5885 28.4808 16.6609 28.3917 16.6609H20.3498C20.2608 16.6609 20.1883 16.5885 20.1883 16.4995V13.7647C20.1883 13.6757 20.2608 13.6033 20.3498 13.6033H28.3917C28.4808 13.6033 28.5532 13.6757 28.5532 13.7647V16.4995Z" fill="black"/>
<path d="M19.2197 21.6073C19.2197 22.2036 19.7048 22.6887 20.3011 22.6887H21.2233C21.8196 22.6887 22.3047 22.2036 22.3047 21.6073V20.6851C22.3047 20.0887 21.8196 19.6037 21.2233 19.6037H20.3011C19.7048 19.6037 19.2197 20.0888 19.2197 20.6851V21.6073ZM20.1883 20.6851C20.1883 20.623 20.2389 20.5724 20.3011 20.5724H21.2233C21.2855 20.5724 21.3361 20.623 21.3361 20.6851V21.6074C21.3361 21.6695 21.2855 21.7201 21.2233 21.7201H20.3011C20.2389 21.7201 20.1883 21.6695 20.1883 21.6074V20.6851Z" fill="black"/>
<path d="M25.9133 20.6852C25.9133 20.0888 25.4282 19.6038 24.8319 19.6038H23.9096C23.3134 19.6038 22.8282 20.0889 22.8282 20.6852V21.6074C22.8282 22.2037 23.3134 22.6888 23.9096 22.6888H24.8319C25.4282 22.6888 25.9133 22.2037 25.9133 21.6074V20.6852ZM24.9446 21.6073C24.9446 21.6695 24.894 21.7201 24.8318 21.7201H23.9096C23.8475 21.7201 23.7969 21.6695 23.7969 21.6073V20.6851C23.7969 20.623 23.8475 20.5724 23.9096 20.5724H24.8319C24.894 20.5724 24.9446 20.623 24.9446 20.6851V21.6073H24.9446Z" fill="black"/>
<path d="M29.5218 20.6852C29.5218 20.0888 29.0366 19.6038 28.4404 19.6038H27.5181C26.9219 19.6038 26.4367 20.0889 26.4367 20.6852V21.6074C26.4367 22.2037 26.9219 22.6888 27.5181 22.6888H28.4404C29.0366 22.6888 29.5218 22.2037 29.5218 21.6074V20.6852ZM28.5531 21.6073C28.5531 21.6695 28.5025 21.7201 28.4404 21.7201H27.5181C27.456 21.7201 27.4054 21.6695 27.4054 21.6073V20.6851C27.4054 20.623 27.456 20.5724 27.5181 20.5724H28.4404C28.5025 20.5724 28.5531 20.623 28.5531 20.6851V21.6073Z" fill="black"/>
<path d="M19.2197 25.5564C19.2197 26.1527 19.7048 26.6378 20.3011 26.6378H21.2233C21.8196 26.6378 22.3047 26.1527 22.3047 25.5564V24.6342C22.3047 24.0379 21.8196 23.5528 21.2233 23.5528H20.3011C19.7048 23.5528 19.2197 24.0378 19.2197 24.6342V25.5564ZM20.1883 24.6342C20.1883 24.572 20.2389 24.5214 20.3011 24.5214H21.2233C21.2855 24.5214 21.3361 24.572 21.3361 24.6342V25.5564C21.3361 25.6186 21.2855 25.6692 21.2233 25.6692H20.3011C20.2389 25.6692 20.1883 25.6186 20.1883 25.5564V24.6342Z" fill="black"/>
<path d="M25.9133 24.6342C25.9133 24.0379 25.4282 23.5528 24.8319 23.5528H23.9096C23.3134 23.5528 22.8282 24.0378 22.8282 24.6342V25.5564C22.8282 26.1527 23.3134 26.6378 23.9096 26.6378H24.8319C25.4282 26.6378 25.9133 26.1527 25.9133 25.5564V24.6342ZM24.9446 25.5564C24.9446 25.6186 24.894 25.6692 24.8318 25.6692H23.9096C23.8475 25.6692 23.7969 25.6186 23.7969 25.5564V24.6342C23.7969 24.572 23.8475 24.5214 23.9096 24.5214H24.8319C24.894 24.5214 24.9446 24.572 24.9446 24.6342V25.5564H24.9446Z" fill="black"/>
<path d="M19.2197 29.5055C19.2197 30.1017 19.7048 30.5869 20.3011 30.5869H21.2233C21.8196 30.5869 22.3047 30.1017 22.3047 29.5055V28.5832C22.3047 27.987 21.8196 27.5018 21.2233 27.5018H20.3011C19.7048 27.5018 19.2197 27.9869 19.2197 28.5832V29.5055ZM20.1883 28.5833C20.1883 28.5211 20.2389 28.4705 20.3011 28.4705H21.2233C21.2855 28.4705 21.3361 28.5211 21.3361 28.5833V29.5055C21.3361 29.5677 21.2855 29.6183 21.2233 29.6183H20.3011C20.2389 29.6183 20.1883 29.5677 20.1883 29.5055V28.5833Z" fill="black"/>
<path d="M24.8318 27.5019H23.9096C23.3134 27.5019 22.8282 27.987 22.8282 28.5833V29.5056C22.8282 30.1018 23.3134 30.587 23.9096 30.587H24.8319C25.4282 30.587 25.9133 30.1018 25.9133 29.5056V28.5833C25.9133 27.987 25.4282 27.5019 24.8318 27.5019ZM24.9446 29.5055C24.9446 29.5676 24.894 29.6182 24.8318 29.6182H23.9096C23.8475 29.6182 23.7969 29.5676 23.7969 29.5055V28.5832C23.7969 28.5211 23.8475 28.4705 23.9096 28.4705H24.8319C24.894 28.4705 24.9446 28.521 24.9446 28.5832V29.5055H24.9446Z" fill="black"/>
<path d="M28.3489 23.5528H27.6096C26.9629 23.5528 26.4367 24.0789 26.4367 24.7256V29.4141C26.4367 30.0608 26.9629 30.587 27.6096 30.587H28.3489C28.9956 30.587 29.5218 30.0608 29.5218 29.4141V24.7256C29.5218 24.0789 28.9956 23.5528 28.3489 23.5528ZM28.5531 29.4141C28.5531 29.5267 28.4615 29.6183 28.3489 29.6183H27.6096C27.497 29.6183 27.4054 29.5267 27.4054 29.4141V24.7256C27.4054 24.613 27.497 24.5215 27.6096 24.5215H28.3489C28.4615 24.5215 28.5531 24.6131 28.5531 24.7256V29.4141Z" fill="black"/>
<path d="M4.97631 9.04826H6.90971C7.17719 9.04826 7.39408 8.83144 7.39408 8.56389C7.39408 8.29641 7.17725 8.07953 6.90971 8.07953H4.97631C4.70883 8.07953 4.49194 8.29641 4.49194 8.56389C4.49194 8.83137 4.70883 9.04826 4.97631 9.04826Z" fill="black"/>
<path d="M9.08936 9.04826H18.4112C18.6787 9.04826 18.8956 8.83144 18.8956 8.56389C18.8956 8.29641 18.6787 8.07953 18.4112 8.07953H9.08936C8.82188 8.07953 8.605 8.29641 8.605 8.56389C8.60506 8.83137 8.82188 9.04826 9.08936 9.04826Z" fill="black"/>
<path d="M4.97631 13.3069H6.90971C7.17719 13.3069 7.39408 13.09 7.39408 12.8225C7.39408 12.555 7.17725 12.3381 6.90971 12.3381H4.97631C4.70883 12.3381 4.49194 12.555 4.49194 12.8225C4.49194 13.09 4.70883 13.3069 4.97631 13.3069Z" fill="black"/>
<path d="M4.97631 17.5656H6.90971C7.17719 17.5656 7.39408 17.3487 7.39408 17.0812C7.39408 16.8137 7.17725 16.5968 6.90971 16.5968H4.97631C4.70883 16.5968 4.49194 16.8137 4.49194 17.0812C4.49194 17.3487 4.70883 17.5656 4.97631 17.5656Z" fill="black"/>
<path d="M4.97631 21.8242H6.90971C7.17719 21.8242 7.39408 21.6073 7.39408 21.3399C7.39408 21.0724 7.17725 20.8555 6.90971 20.8555H4.97631C4.70883 20.8555 4.49194 21.0724 4.49194 21.3399C4.49194 21.6074 4.70883 21.8242 4.97631 21.8242Z" fill="black"/>
<path d="M4.97631 26.0829H6.90971C7.17719 26.0829 7.39408 25.8661 7.39408 25.5985C7.39408 25.331 7.17725 25.1142 6.90971 25.1142H4.97631C4.70883 25.1142 4.49194 25.331 4.49194 25.5985C4.49194 25.8661 4.70883 26.0829 4.97631 26.0829Z" fill="black"/>
</g>
<defs>
<clipPath id="clip0">
<rect width="33" height="33" fill="white"/>
</clipPath>
</defs>
</svg>
