<svg width="1920" height="452" viewBox="0 0 1920 452" fill="none" xmlns="http://www.w3.org/2000/svg">
    <path opacity="0.07" d="M-462.02 35.5059C-462.02 35.5059 -321.862 358.877 299.071 320.452C790.956 290.013 945.697 63.5143 1465.47 188.974C1806.09 271.148 2062.68 375.312 2358.04 199.969L2405.5 1449.01L-531 1471L-462.02 35.5059Z" fill="url(#paint0_linear)"/>
    <path opacity="0.08" d="M-249.411 36.4316C-249.411 36.4316 -70.3646 265.939 328.93 215.478C728.225 165.016 976.136 -73.635 1343.26 22.6588C1710.49 119.068 1907.82 293.485 2178.65 192.446C2449.48 91.5227 2412.67 1223.78 2412.67 1223.78H-304.502L-249.411 36.4316Z" fill="url(#paint1_linear)"/>
    <path opacity="0.07" d="M-467.575 239.088C-467.575 239.088 -311.561 64.6711 -22.3321 41.755C266.781 18.839 697.209 307.952 1218.49 265.129C1815.12 216.172 1982.82 -81.1583 2295.55 26.4777C2668.8 154.947 2577.02 1242.88 2577.02 1242.88L-522.666 1247.51L-467.575 239.088Z" fill="url(#paint2_linear)"/>
    <defs>
        <linearGradient id="paint0_linear" x1="-531.018" y1="753.249" x2="2405.36" y2="753.249" gradientUnits="userSpaceOnUse">
            <stop offset="0.3931" stop-color="#0082F3"/>
            <stop offset="1" stop-color="#0088FF" stop-opacity="0"/>
        </linearGradient>
        <linearGradient id="paint1_linear" x1="-304.529" y1="611.875" x2="2414.29" y2="611.875" gradientUnits="userSpaceOnUse">
            <stop offset="0.3931" stop-color="#0082F3"/>
            <stop offset="1" stop-color="#0088FF" stop-opacity="0"/>
        </linearGradient>
        <linearGradient id="paint2_linear" x1="2568.78" y1="1324.59" x2="-522.999" y2="-169" gradientUnits="userSpaceOnUse">
            <stop offset="0.582188" stop-color="#0082F3"/>
            <stop offset="1" stop-color="#0088FF" stop-opacity="0"/>
        </linearGradient>
    </defs>
</svg>
