<svg xmlns="http://www.w3.org/2000/svg" fill="#fff" width="13" height="13" viewBox="0 0 330 330"><path d="M181.213 233.999l11.895 11.895c5.857 5.858 5.857 15.355-.001 21.214-2.929 2.928-6.769 4.393-10.606 4.393a14.95 14.95 0 0 1-10.607-4.394l-37.5-37.501c-.024-.025-.046-.053-.07-.078-.318-.322-.624-.657-.912-1.008-.086-.105-.16-.219-.244-.325-.217-.28-.435-.56-.632-.855-.064-.095-.116-.196-.179-.293-.201-.316-.4-.637-.579-.969-.037-.069-.066-.143-.103-.211-.188-.366-.369-.736-.527-1.118-.02-.047-.033-.096-.053-.143-.163-.405-.314-.815-.442-1.237-.015-.049-.024-.1-.038-.149a14.6 14.6 0 0 1-.319-1.268c-.024-.123-.036-.25-.058-.375-.062-.357-.125-.714-.16-1.079a14.63 14.63 0 0 1-.076-1.498c0-.503.025-1.002.076-1.497.035-.365.099-.723.16-1.08.021-.125.033-.252.058-.375.085-.426.194-.842.315-1.254.016-.055.025-.111.043-.166.127-.418.277-.826.439-1.229.02-.05.035-.102.055-.15.157-.378.336-.744.522-1.105.038-.073.069-.15.108-.224a14.77 14.77 0 0 1 .571-.955c.065-.102.12-.207.187-.308.19-.283.4-.553.609-.822.092-.118.172-.242.268-.357a15.42 15.42 0 0 1 .823-.91c.055-.057.102-.118.158-.174l37.5-37.5c5.858-5.857 15.354-5.856 21.214.001s5.857 15.355-.001 21.214l-11.893 11.892L240 204h30v-15.954V140h-30-21.213H145c-8.284 0-15-6.716-15-15V51.213 30 0H15C6.716 0 0 6.716 0 15v300c0 8.284 6.716 15 15 15h240c8.284 0 15-6.716 15-15v-40.089V234h-30l-58.787-.001zm80-123.999L160 8.787v42.426V110h58.787z"/><path d="M315 204h-2.335H270v30h32.723H315c8.283 0 15-6.717 15-15s-6.716-15-15-15z"/></svg>