<svg xmlns="http://www.w3.org/2000/svg" viewBox="0 0 24 24" fill="currentColor" fill-rule="evenodd">
<path fill="none" d="M16 12a4 4 0 1 1-8 0 4 4 0 1 1 8 0zm-2 0a2 2 0 1 1-4 0 2 2 0 1 1 4 0zM2.43 8.576l1.82-3.153a1 1 0 0 1 1.169-.453l1.837.585a7.97 7.97 0 0 1 .762-.496 7.97 7.97 0 0 1 .773-.391l.412-1.883A1 1 0 0 1 10.18 2h3.64a1 1 0 0 1 .977.786l.412 1.883c.282.124.555.263.819.417a7.97 7.97 0 0 1 .716.469l1.837-.585a1 1 0 0 1 1.169.453l1.82 3.153a1 1 0 0 1-.192 1.239l-1.425 1.298a7.98 7.98 0 0 1 .049.885c0 .295-.016.591-.049.887l1.425 1.298a1 1 0 0 1 .192 1.239l-1.82 3.153a1 1 0 0 1-1.169.453l-1.837-.585a7.91 7.91 0 0 1-.725.474c-.261.152-.531.29-.81.412l-.412 1.883a1 1 0 0 1-.977.786h-3.64a1 1 0 0 1-.977-.786l-.412-1.883a7.82 7.82 0 0 1-.765-.386 7.8 7.8 0 0 1-.77-.501l-1.837.585a1 1 0 0 1-1.169-.453l-1.82-3.152a1 1 0 0 1 .192-1.239l1.425-1.298a7.97 7.97 0 0 1 0-1.772L2.622 9.815a1 1 0 0 1-.192-1.239zM13.015 4l.458 2.092.933.409c.211.093.416.197.614.312l.003.002c.184.107.363.224.536.351l.821.604 2.041-.65 1.015 1.758-1.583 1.442.112 1.013a5.89 5.89 0 0 1 .036.663V12a5.99 5.99 0 0 1-.036.665l-.112 1.013 1.583 1.442-1.015 1.758-2.041-.65-.821.604a5.99 5.99 0 0 1-.543.355l-.003.002a5.97 5.97 0 0 1-.607.308l-.933.409L13.015 20h-2.03l-.458-2.092-.933-.409a5.99 5.99 0 0 1-.573-.289l-.003-.002a5.87 5.87 0 0 1-.577-.375l-.821-.604-2.041.65-1.015-1.758 1.583-1.442-.112-1.013a5.68 5.68 0 0 1-.036-.664v-.004c0-.221.012-.443.036-.664l.112-1.013-1.583-1.442 1.015-1.758 2.041.65.821-.604a5.97 5.97 0 0 1 .57-.371l.003-.002a5.97 5.97 0 0 1 .579-.293l.933-.409L10.985 4h2.03z"/>
</svg>