<?xml version="1.0" encoding="utf-8"?>
<!-- Generator: Adobe Illustrator 16.0.0, SVG Export Plug-In . SVG Version: 6.00 Build 0)  -->
<!DOCTYPE svg PUBLIC "-//W3C//DTD SVG 1.1//EN" "http://www.w3.org/Graphics/SVG/1.1/DTD/svg11.dtd">
<svg version="1.1" xmlns="http://www.w3.org/2000/svg" xmlns:xlink="http://www.w3.org/1999/xlink" x="0px" y="0px"
	 width="804.782px" height="296.463px" viewBox="0 0 804.782 296.463" enable-background="new 0 0 804.782 296.463"
	 xml:space="preserve">
<g id="Layer_2">
</g>
<g id="Layer_1">
	<path fill="#FFFFFF" d="M228.23,143.541V51.277C228.23,26.27,207.961,6,182.959,6L45.27,28.678C20.262,28.678,0,48.948,0,73.956
		v137.686c0,25.002,20.262,45.273,45.27,45.273h137.689c25.002,0,45.271-20.271,45.271-45.273v-53.852
		c-0.135-2.326-0.223-4.674-0.223-7.066C228.008,148.312,228.088,145.917,228.23,143.541z M175.027,227.224
		c-15.956,11.01-35.23,16.514-57.789,16.514c-32.489,0-62.485-11.695-90-35.094l29.403-29.727
		c18.195,19.547,39.191,29.313,62.936,29.313c9.109,0,17.537-1.926,25.271-5.771c9.672-4.662,14.485-11.104,14.485-19.355
		c0-12.074-8.806-19.764-26.431-23.066l-24.345-4.629c-21.749-4.135-37.851-9.361-48.3-15.689
		c-15.675-9.639-23.54-23.395-23.54-41.297c0-20.368,8.274-36.609,24.782-48.727c14.59-11.01,32.479-16.515,53.665-16.515
		c26.972,0,53.395,9.232,79.277,27.663l-24.448,30.137c-17.676-14.864-35.649-22.292-53.868-22.292
		c-8.841,0-16.847,1.939-24.025,5.784c-8.565,4.681-12.847,11.138-12.847,19.405c0,10.737,8.792,17.745,26.429,21.066l43.329,8.245
		c35.245,6.596,52.857,24.363,52.857,53.264C201.869,197.923,192.918,214.837,175.027,227.224z"/>
	<path fill="#FFFFFF" d="M374.221,87.864c-6.885-9.855-15.383-17.353-25.504-22.494c-10.115-5.135-21.178-7.699-33.199-7.699
		c-12.84,0-24.681,2.464-35.516,7.392c-10.835,4.927-20.668,12.538-29.498,22.801c-5.549,6.371-9.937,12.761-13.174,19.183
		c-3.232,6.424-5.604,13.355-7.086,20.797c-1.029,5.145-1.695,10.379-2.014,15.697v14.25c1.266,21.912,8.475,40.771,21.657,56.561
		c7.907,9.346,17.356,16.586,28.348,21.721c10.986,5.135,23.009,7.699,36.054,7.699c11.092,0,22.154-2.67,33.201-8.008
		c11.037-5.336,19.742-12.48,26.107-21.412h0.623v23.725h38.664V63.214h-38.664V87.864z M366.443,177.142
		c-4.248,7.957-10.281,14.229-18.076,18.793c-7.795,4.58-16.613,6.859-26.455,6.859c-14.162,0-26.31-4.877-36.465-14.639
		c-10.152-9.754-15.228-21.721-15.228-35.893c0-15.512,4.902-28.322,14.692-38.441c9.795-10.111,22.332-15.174,37.607-15.174
		c7.287,0,14.059,1.311,20.313,3.932c6.254,2.619,11.592,6.236,15.998,10.857c4.412,4.625,7.844,10.09,10.307,16.41
		c2.455,6.316,3.695,13.172,3.695,20.563C372.832,160.275,370.695,169.185,366.443,177.142z"/>
	<path fill="#FFFFFF" d="M228.008,150.724c0,2.393,0.088,4.74,0.223,7.066v-14.25C228.088,145.917,228.008,148.312,228.008,150.724z
		"/>
	<path fill="#FFFFFF" d="M597.121,104.269c-3.791-7.132-8.164-13.22-13.092-18.253c-8.73-9.962-18.203-17.18-28.424-21.649
		c-10.221-4.468-21.898-6.696-35.047-6.696c-24.654,0-43.344,9.446-56.074,28.345h-0.777V63.214h-38.359v233.249h41.906v-77.34
		h0.613c12.842,16.439,30.402,24.648,52.691,24.648c12.324,0,23.896-2.463,34.734-7.391c10.84-4.928,20.264-11.787,28.277-20.568
		c8.01-8.785,14.119-18.77,18.332-29.963c4.211-11.193,6.318-22.902,6.318-35.125c0-8.014-0.904-15.977-2.693-23.883
		C603.725,118.935,600.928,111.41,597.121,104.269z M559.613,176.755c-4.467,8.014-10.682,14.357-18.645,19.027
		c-7.959,4.682-16.768,7.012-26.422,7.012c-5.648,0-11.453-1.176-17.412-3.545c-5.949-2.363-11.299-5.594-16.021-9.705
		c-10.883-9.754-16.328-22.695-16.328-38.82c0-9.453,2.236-18.184,6.699-26.195c4.469-8.008,10.613-14.328,18.416-18.949
		c7.803-4.619,16.537-6.932,26.188-6.932c9.348,0,17.873,2.385,25.57,7.168c7.707,4.77,13.74,11.164,18.111,19.178
		c4.361,8.012,6.543,16.484,6.543,25.416C566.313,159.962,564.08,168.748,559.613,176.755z"/>
	<path fill="#FFFFFF" d="M797.926,115.06c-4.582-11.25-11.08-21.188-19.508-29.812c-8.426-8.634-18.221-15.382-29.371-20.259
		c-11.158-4.877-23.107-7.318-35.854-7.318c-13.152,0-25.443,2.385-36.848,7.161c-11.406,4.776-21.43,11.402-30.072,19.874
		c-8.631,8.473-15.393,18.388-20.273,29.733c-4.879,11.35-7.318,23.545-7.318,36.592c0,16.535,4.18,31.947,12.566,46.219
		c8.373,14.273,19.676,25.596,33.916,33.973c14.24,8.367,29.627,12.549,46.182,12.549c12.541,0,24.484-2.334,35.85-7.004
		c11.357-4.676,21.43-11.379,30.215-20.109c8.795-8.729,15.553-18.691,20.283-29.885c4.729-11.199,7.092-23.115,7.092-35.742
		C804.785,138.292,802.496,126.298,797.926,115.06z M755.959,177.064c-4.412,8.014-10.518,14.307-18.314,18.871
		c-7.789,4.58-16.555,6.859-26.299,6.859c-9.229,0-17.723-2.313-25.455-6.934c-7.744-4.619-13.846-10.957-18.311-19.027
		c-4.461-8.063-6.691-16.664-6.691-25.803c0-14.486,4.826-26.604,14.459-36.363c4.518-4.928,10.078-8.83,16.689-11.703
		c6.615-2.877,13.055-4.316,19.309-4.316c9.332,0,17.947,2.34,25.848,7.006c7.896,4.68,14.096,11.074,18.609,19.188
		c4.514,8.109,6.764,16.846,6.764,26.189C762.566,160.376,760.369,169.05,755.959,177.064z"/>
</g>
</svg>
