<svg  viewBox="-17 0 446 446.03835" fill="#eceff4" xmlns="http://www.w3.org/2000/svg"><path d="m188.914062 228.269531-156.367187-35.527343-32.5195312 27.105468 156.3593752 35.535156zm0 0"/><path d="m126.105469 154.078125c-1.710938-2.097656-3.328125-4.265625-4.871094-6.480469-.496094-.703125-.941406-1.421875-1.414063-2.136718-1.03125-1.597657-2.03125-3.132813-2.984374-4.742188-.488282-.800781-.96875-1.679688-1.433594-2.527344-.886719-1.601562-1.71875-3.199218-2.519532-4.890625-.390624-.796875-.800781-1.597656-1.160156-2.398437-.945312-2.078125-1.808594-4.191406-2.609375-6.328125-.125-.335938-.285156-.65625-.414062-.992188l-108.6796878 24.6875 32.5273438 27.113281zm0 0"/><path d="m121.769531 111.964844c1.097657 3.890625 2.460938 7.699218 4.082031 11.402344 3.265626 7.417968 7.527344 14.351562 12.671876 20.613281 2.601562 3.164062 5.410156 6.144531 8.414062 8.921875 32.359375 29.738281 81.691406 31.070312 115.605469 3.117187 33.914062-27.953125 42.027343-76.628906 19.011719-114.070312-23.015626-37.441407-70.109376-52.183594-110.367188-34.546875-40.253906 17.636718-61.339844 62.253906-49.417969 104.554687zm84.699219-15.902344c-16.097656.019531-29.691406-11.9375-31.722656-27.90625-2.03125-15.964844 8.136718-30.945312 23.722656-34.957031v-9.136719c0-4.417969 3.582031-8 8-8s8 3.582031 8 8v9.136719c14.082031 3.636719 23.945312 16.316406 24 30.863281 0 4.417969-3.582031 8-8 8s-8-3.582031-8-8c0-8.835938-7.164062-16-16-16-8.839844 0-16 7.164062-16 16s7.160156 16 16 16c16.09375-.019531 29.6875 11.9375 31.71875 27.902344 2.03125 15.96875-8.132812 30.949218-23.71875 34.960937v9.136719c0 4.417969-3.582031 8-8 8s-8-3.582031-8-8v-9.136719c-14.085938-3.636719-23.945312-16.316406-24-30.863281 0-4.417969 3.582031-8 8-8s8 3.582031 8 8c0 8.835938 7.160156 16 16 16 8.835938 0 16-7.164062 16-16s-7.164062-16-16-16zm0 0"/><path d="m295.148438 142.359375c-.945313 1.542969-1.9375 3.054687-2.96875 4.550781-.519532.800782-1.039063 1.535156-1.601563 2.289063-1.253906 1.726562-2.582031 3.40625-3.941406 5.0625-.3125.375-.585938.800781-.90625 1.152343l94.128906 19.921876 26.695313-26.691407-102.917969-23.421875c-.105469.273438-.242188.535156-.355469.800782-.863281 2.21875-1.800781 4.394531-2.8125 6.535156-.386719.800781-.800781 1.601562-1.21875 2.398437-.796875 1.640625-1.679688 3.257813-2.589844 4.839844-.496094.882813-1 1.722656-1.511718 2.5625zm0 0"/><path d="m374.46875 244.992188-118.226562 26.871093c-.582032.132813-1.175782.199219-1.773438.199219-1.871094 0-3.683594-.652344-5.121094-1.847656l-34.878906-29.074219v204.898437l160-36.375zm0 0"/><path d="m380.386719 192.742188-156.367188 35.527343 32.527344 27.113281 156.359375-35.535156zm0 0"/><path d="m345.140625 184.34375-73.273437-15.480469c-38.722657 31.488281-94.386719 30.90625-132.449219-1.375l-72.878907 16.574219 139.929688 31.792969zm0 0"/><path d="m198.46875 241.140625-34.882812 29.074219c-1.4375 1.195312-3.25 1.847656-5.117188 1.847656-.597656 0-1.195312-.066406-1.777344-.199219l-118.222656-26.871093v164.671874l160 36.359376zm0 0"/></svg>