<svg xmlns="http://www.w3.org/2000/svg"  width="24" height="24" viewBox="0 0 24 24" fill="currentColor"><path fill="currentColor" d="M5.5 15c.91 0 1.733-.358 2.357-.93l6.26 3.577c-.069.275-.117.557-.117.853 0 1.93 1.57 3.5 3.5 3.5s3.5-1.57 3.5-3.5-1.57-3.5-3.5-3.5c-.91 0-1.733.358-2.357.93l-6.26-3.577a3.35 3.35 0 0 0 .108-.768l6.151-3.515c.625.572 1.448.93 2.358.93C19.43 9 21 7.43 21 5.5S19.43 2 17.5 2 14 3.57 14 5.5c0 .296.048.578.117.853L8.433 9.602C7.808 8.64 6.729 8 5.5 8 3.57 8 2 9.57 2 11.5S3.57 15 5.5 15zm12 2a1.5 1.5 0 1 1 0 3 1.5 1.5 0 1 1 0-3zm0-13a1.5 1.5 0 1 1 0 3 1.5 1.5 0 1 1 0-3zm-12 6a1.5 1.5 0 1 1 0 3 1.5 1.5 0 1 1 0-3z"/></svg>